<svg version="1.0" xmlns="http://www.w3.org/2000/svg"
    width="10631.000000pt" height="2010.000000pt" viewBox="0 0 10631.000000 2010.000000"
    preserveAspectRatio="xMidYMid meet">

    <g transform="translate(0.000000,2010.000000) scale(0.100000,-0.100000)"
        fill="#000000" stroke="none">
        <path
            d="M9765 18040 c-43 -10 -86 -34 -204 -113 -205 -137 -458 -239 -771
-311 -85 -19 -313 -62 -505 -95 -401 -69 -545 -98 -735 -147 -781 -205 -1328
-595 -1788 -1275 l-72 -107 -98 -21 c-547 -123 -965 -342 -1331 -696 -307
-298 -486 -556 -851 -1230 -388 -716 -516 -890 -827 -1118 -115 -85 -159 -133
-167 -183 -7 -37 6 -96 69 -324 37 -133 49 -243 49 -460 -1 -239 -8 -318 -84
-840 -67 -465 -84 -668 -77 -955 12 -466 95 -805 297 -1200 110 -216 219 -382
388 -593 l75 -93 -12 -127 c-58 -647 83 -1205 444 -1747 175 -263 337 -451
790 -915 519 -532 660 -726 765 -1045 47 -143 82 -207 131 -235 36 -19 62 -23
221 -31 258 -13 423 -45 653 -127 166 -59 276 -108 670 -297 506 -243 710
-327 970 -399 295 -81 499 -109 790 -109 381 1 700 60 1094 203 l134 49 121
-51 c261 -109 497 -174 766 -209 127 -17 510 -17 625 -1 480 70 786 175 1485
512 733 353 972 429 1345 430 147 0 198 10 238 48 37 35 51 62 104 207 98 267
228 472 467 739 44 49 211 223 369 385 419 428 590 633 754 906 148 246 252
495 317 760 65 266 79 398 81 744 l0 294 78 88 c179 202 308 392 417 613 129
262 196 475 242 767 19 127 22 183 22 464 1 360 -4 411 -84 982 -70 493 -83
648 -77 873 6 206 21 289 83 485 50 157 52 218 8 272 -17 21 -73 71 -125 111
-217 167 -347 309 -502 545 -112 170 -142 223 -332 578 -316 591 -504 868
-780 1144 -358 358 -803 606 -1365 760 l-115 31 -40 63 c-22 35 -73 113 -114
175 -340 515 -830 877 -1465 1081 -259 84 -506 139 -1061 235 -374 65 -575
110 -755 170 -195 64 -291 111 -441 212 -179 122 -224 143 -284 128z m137
-394 c166 -108 380 -202 615 -272 164 -48 344 -86 743 -154 540 -93 760 -144
1015 -236 527 -191 959 -542 1302 -1059 44 -66 92 -141 107 -166 l26 -46 103
-17 c572 -94 1055 -350 1415 -749 229 -253 378 -483 692 -1062 253 -467 360
-643 500 -820 85 -107 237 -257 336 -332 45 -34 84 -69 87 -77 4 -9 0 -34 -8
-55 -22 -64 -63 -258 -75 -361 -15 -122 -15 -431 0 -580 13 -132 35 -295 84
-635 53 -362 68 -535 69 -775 0 -220 -10 -337 -44 -517 -84 -439 -311 -877
-658 -1270 l-80 -91 14 -87 c78 -483 12 -975 -186 -1385 -174 -361 -371 -614
-898 -1153 -399 -409 -528 -557 -666 -762 -76 -113 -172 -305 -205 -410 -12
-38 -29 -76 -38 -82 -9 -8 -45 -13 -86 -13 -227 0 -519 -67 -821 -187 -134
-53 -237 -101 -762 -351 -474 -227 -791 -332 -1143 -378 -176 -23 -545 -15
-715 15 -248 44 -467 108 -697 202 -67 28 -129 48 -137 46 -9 -3 -74 -32 -146
-65 -345 -160 -667 -234 -1020 -235 -206 -1 -324 11 -509 49 -332 70 -602 173
-1186 454 -429 206 -568 267 -760 332 -239 81 -432 118 -611 118 -126 0 -120
-5 -173 131 -50 131 -114 253 -200 384 -137 207 -247 334 -626 720 -460 469
-613 652 -782 938 -263 444 -374 967 -328 1556 l12 163 -99 101 c-303 310
-510 667 -608 1051 -60 237 -70 326 -70 666 0 343 3 375 80 930 79 567 80 579
80 860 0 278 -10 366 -61 535 -46 153 -48 142 48 217 120 95 301 284 406 427
114 153 241 365 407 676 262 492 399 715 570 928 371 461 871 762 1527 917
l137 32 47 86 c386 715 930 1107 1809 1306 160 36 329 68 685 130 351 62 528
100 703 152 227 67 423 156 573 259 43 30 89 55 101 55 12 0 60 -24 105 -54z" />
        <path
            d="M9730 17544 c-88 -60 -235 -135 -361 -184 -227 -89 -472 -148 -1004
-240 -710 -124 -995 -201 -1320 -360 -446 -219 -769 -536 -1026 -1009 l-70
-130 -97 -21 c-882 -197 -1420 -591 -1874 -1375 -42 -71 -144 -258 -228 -415
-303 -566 -448 -779 -687 -1011 -77 -75 -180 -164 -201 -175 -1 0 5 -21 13
-45 58 -163 88 -467 74 -750 -10 -197 -16 -254 -79 -704 -76 -543 -84 -626
-84 -925 -1 -206 3 -291 17 -380 40 -259 100 -456 202 -665 110 -226 241 -409
444 -618 l124 -128 -7 -54 c-18 -153 -27 -375 -21 -500 31 -663 242 -1151 729
-1690 50 -55 217 -228 371 -385 364 -372 501 -530 638 -740 70 -108 156 -272
197 -376 l31 -81 132 -6 c297 -14 612 -113 1107 -347 113 -54 291 -138 395
-188 639 -303 1025 -412 1465 -412 364 0 687 78 1053 254 64 31 125 56 136 56
10 0 66 -20 123 -45 234 -99 528 -185 758 -220 148 -23 429 -30 575 -16 245
25 513 92 775 195 171 68 283 119 655 299 165 80 360 170 434 201 318 134 594
206 857 224 l106 7 28 75 c64 177 191 391 350 590 115 144 223 261 515 560
354 362 507 534 652 736 233 324 381 684 427 1042 27 213 17 549 -23 757 -12
59 -8 65 113 201 289 326 497 705 592 1080 51 201 65 316 71 559 6 269 -6 410
-81 940 -74 519 -80 577 -80 835 0 245 14 378 60 561 l26 101 -23 16 c-70 49
-209 175 -275 250 -199 222 -303 389 -674 1072 -283 521 -455 767 -716 1021
-186 181 -346 293 -579 405 -212 102 -440 172 -689 213 -64 10 -122 24 -130
30 -8 7 -34 44 -57 84 -214 362 -491 672 -789 882 -92 64 -265 165 -357 206
-313 142 -577 212 -1203 319 -731 125 -1031 216 -1350 410 -47 29 -87 53 -90
55 -3 1 -34 -17 -70 -41z m14 -1291 c12 -138 67 -945 64 -948 -2 -1 -37 -5
-79 -9 l-75 -6 -22 332 c-35 517 -28 512 -89 58 -30 -217 -55 -396 -57 -397
-2 -2 -39 -6 -82 -10 l-80 -6 -104 378 c-58 207 -106 368 -108 358 -2 -11 9
-181 23 -378 20 -288 23 -360 13 -367 -7 -4 -43 -8 -80 -8 -67 0 -68 0 -68 28
0 15 -16 243 -35 507 -18 264 -33 480 -32 481 1 1 58 5 127 9 l125 7 94 -323
c52 -178 98 -328 101 -332 4 -5 13 29 20 75 6 45 28 200 48 343 l37 260 75 6
c41 3 98 6 126 7 l52 2 6 -67z m474 32 c1 -1 -7 -129 -18 -284 -27 -378 -28
-458 -7 -497 63 -119 226 -124 285 -8 15 30 30 157 47 419 8 127 18 257 21
289 l6 59 81 -6 c44 -4 81 -8 83 -10 7 -7 -47 -682 -61 -753 -8 -44 -25 -99
-38 -124 -27 -53 -91 -105 -150 -121 -61 -18 -182 -14 -257 7 -53 15 -74 27
-117 69 -92 92 -99 173 -63 670 11 149 20 277 20 286 0 13 12 15 83 11 45 -2
83 -5 85 -7z m994 -147 c37 -12 68 -26 68 -31 0 -5 -23 -84 -51 -176 -28 -91
-52 -174 -55 -183 -4 -14 18 -24 124 -57 71 -23 142 -44 158 -47 l29 -6 54
179 c30 98 57 183 60 190 7 13 161 -31 161 -46 0 -10 -290 -964 -295 -969 -1
-1 -38 9 -82 23 l-80 25 64 211 c35 116 63 213 60 215 -7 7 -308 97 -311 93
-2 -2 -31 -97 -66 -211 -35 -115 -66 -208 -69 -208 -27 0 -151 46 -151 56 0
10 79 271 261 867 16 53 35 97 41 97 6 0 42 -10 80 -22z m-3055 -139 c23 -11
58 -38 78 -60 34 -38 83 -125 74 -132 -2 -2 -37 -16 -78 -32 -72 -27 -74 -27
-88 -9 -8 10 -20 26 -26 35 -41 54 -104 62 -184 24 -89 -41 -107 -119 -40
-169 24 -18 48 -21 200 -26 152 -5 177 -8 219 -28 145 -71 215 -293 142 -447
-49 -103 -213 -182 -360 -173 -78 5 -135 31 -186 85 -31 33 -99 144 -96 155 2
4 35 23 75 42 l72 35 26 -45 c67 -114 207 -128 294 -29 36 41 42 95 15 146
-24 48 -65 59 -217 59 -89 0 -150 5 -184 15 -66 20 -135 81 -170 153 -37 76
-40 194 -6 258 73 138 297 210 440 143z m4238 -306 c49 -25 75 -43 75 -54 0
-26 -159 -1041 -164 -1046 -2 -2 -38 13 -80 34 -53 26 -76 43 -76 56 0 10 7
63 17 118 10 60 13 103 7 108 -5 5 -71 42 -148 81 l-139 73 -82 -89 -83 -89
-81 40 c-44 21 -81 41 -81 44 0 6 752 761 757 761 2 0 36 -17 78 -37z m-4926
-452 l392 -364 -28 -16 c-15 -10 -52 -30 -80 -46 l-53 -28 -90 82 -90 82 -140
-76 c-77 -42 -142 -80 -144 -83 -2 -4 7 -54 19 -112 13 -58 24 -110 25 -117 0
-10 -149 -98 -155 -91 -5 5 -205 1013 -205 1033 0 14 20 32 73 62 39 22 75 40
78 39 4 0 183 -165 398 -365z m5620 17 c53 -39 97 -72 99 -73 1 -1 -57 -130
-129 -286 -173 -375 -166 -357 -143 -339 26 21 453 388 486 418 l27 25 100
-74 c55 -41 100 -78 98 -84 -1 -5 -138 -191 -305 -413 l-303 -402 -42 30 c-23
17 -52 38 -64 48 l-23 17 230 304 c127 168 230 307 230 310 0 2 -12 -7 -27
-21 -39 -35 -525 -460 -546 -477 -18 -14 -41 -3 -120 62 l-29 22 170 358 c94
196 169 357 168 357 -2 0 -108 -139 -236 -309 l-233 -310 -61 46 c-34 26 -62
47 -64 48 -4 3 608 815 615 815 3 0 49 -32 102 -72z m-6489 -136 c0 -5 -43
-42 -95 -81 l-95 -72 246 -327 c136 -180 251 -332 256 -339 6 -8 -12 -27 -58
-63 -54 -40 -70 -48 -80 -38 -6 7 -120 158 -253 336 -133 177 -245 322 -249
322 -5 0 -51 -32 -103 -71 l-94 -70 -22 28 c-13 15 -36 47 -53 70 l-30 41 266
201 266 201 49 -65 c27 -35 49 -68 49 -73z m-312 -942 l243 -234 -60 -60 -61
-61 -47 46 c-294 281 -679 655 -682 662 -2 5 23 35 55 68 l58 59 125 -123 c70
-67 235 -228 369 -357z m7691 298 l80 -91 -22 -31 c-19 -28 -363 -490 -391
-525 -9 -12 -7 -12 14 -1 55 29 537 294 566 311 l31 19 82 -95 c45 -52 80 -99
76 -104 -10 -17 -753 -661 -763 -661 -4 0 -30 25 -56 56 -47 54 -48 56 -30 73
11 10 139 122 287 250 147 128 267 234 267 236 0 2 -84 -44 -187 -101 -104
-58 -257 -144 -341 -192 l-154 -86 -34 40 c-19 21 -42 50 -53 64 l-18 25 219
285 c121 157 229 299 240 315 l22 30 -25 -21 c-13 -11 -144 -125 -291 -252
-147 -128 -270 -232 -275 -231 -4 0 -29 26 -55 57 -45 54 -46 58 -30 74 55 52
747 648 753 648 5 0 44 -41 88 -92z m-3070 -89 c68 -48 126 -115 214 -243 121
-177 120 -176 178 -176 41 0 57 6 88 31 43 34 115 59 172 59 21 0 41 5 44 10
32 52 163 -85 269 -280 43 -82 48 -86 91 -98 41 -11 50 -10 85 8 59 30 116 35
190 16 34 -9 71 -14 82 -11 35 12 56 -6 97 -84 39 -76 78 -197 101 -314 11
-55 14 -59 58 -81 44 -21 49 -22 82 -9 48 20 142 13 205 -16 28 -13 64 -24 80
-25 24 -1 34 -8 49 -40 41 -84 57 -176 64 -356 l7 -175 71 3 c78 4 115 -7 188
-57 25 -17 53 -31 64 -31 28 0 39 -17 52 -88 13 -62 9 -263 -6 -359 l-7 -43
35 0 c61 0 128 -30 181 -81 28 -27 58 -49 67 -49 31 0 40 -23 40 -101 0 -106
-23 -217 -77 -371 -53 -153 -51 -164 25 -191 64 -22 105 -56 139 -116 14 -25
40 -58 56 -72 31 -26 31 -27 19 -80 -18 -79 -71 -194 -134 -291 l-56 -86 11
-46 c10 -38 20 -50 59 -75 52 -33 103 -110 113 -172 4 -20 15 -45 26 -55 27
-25 24 -51 -17 -120 -47 -79 -129 -173 -231 -264 -45 -40 -80 -78 -76 -83 16
-26 21 -88 12 -146 -9 -57 -8 -66 9 -85 49 -53 71 -147 54 -224 -6 -24 -6 -44
-1 -48 5 -3 9 -18 9 -35 0 -24 -10 -37 -62 -75 -35 -26 -100 -65 -145 -87 -81
-40 -83 -42 -83 -78 0 -20 -6 -57 -14 -83 -14 -45 -13 -49 11 -92 31 -56 40
-142 20 -205 -10 -32 -11 -52 -5 -64 36 -63 -146 -159 -418 -220 -65 -15 -119
-27 -120 -28 0 -1 -9 -27 -20 -57 -19 -53 -19 -56 -2 -90 22 -44 23 -148 2
-205 -8 -22 -16 -58 -17 -80 -2 -39 -4 -41 -68 -72 -57 -28 -154 -58 -251 -78
-15 -3 -29 -14 -33 -26 -4 -12 -17 -38 -28 -58 -18 -30 -22 -52 -22 -136 0
-93 -2 -104 -32 -160 -17 -33 -36 -72 -41 -86 -13 -32 -84 -55 -227 -71 -81
-9 -139 -8 -303 5 l-202 16 -88 -34 c-108 -42 -184 -61 -287 -74 -46 -6 -112
-23 -154 -41 -180 -74 -486 -160 -706 -198 -60 -11 -103 -22 -95 -24 8 -3 51
-15 95 -27 136 -38 262 -89 483 -196 116 -57 212 -106 212 -108 0 -2 -55 -10
-122 -16 l-123 -13 -84 56 c-172 114 -376 203 -586 256 -108 28 -112 28 -275
19 -91 -6 -246 -7 -346 -3 -165 5 -189 4 -263 -15 -199 -52 -430 -153 -581
-255 l-85 -58 -122 12 c-68 7 -123 15 -123 17 0 8 425 211 518 247 51 20 133
47 182 59 50 13 92 26 95 29 3 3 -29 11 -72 18 -126 20 -384 87 -542 142 -191
66 -341 131 -527 228 -84 43 -154 77 -155 76 -2 -2 -94 -12 -204 -21 -223 -20
-393 -16 -490 10 -80 22 -207 82 -286 136 -130 88 -279 252 -279 309 0 43 23
56 68 40 73 -27 117 -29 272 -13 85 8 186 13 224 10 l69 -5 -119 118 -119 117
-80 12 c-173 26 -380 73 -456 102 -231 89 -464 337 -532 565 -14 46 -14 54 -1
73 20 28 43 27 84 -4 47 -35 103 -51 277 -79 83 -14 175 -34 205 -46 29 -11
54 -20 55 -20 0 0 -24 44 -55 98 l-56 98 -172 78 c-234 106 -324 159 -412 240
-160 150 -274 380 -297 602 -5 49 -3 64 10 77 27 27 47 20 105 -36 46 -44 79
-63 202 -116 81 -35 177 -83 214 -107 37 -24 68 -44 68 -44 2 0 -74 313 -82
337 -4 12 -79 84 -167 161 -88 77 -176 160 -196 183 -99 121 -154 241 -185
405 -19 103 -15 284 7 349 12 34 19 40 47 43 29 3 34 0 48 -34 25 -60 53 -91
172 -191 63 -52 135 -122 160 -155 l47 -60 8 176 c7 164 6 178 -12 204 -10 15
-49 78 -86 140 -163 275 -198 410 -160 626 25 142 96 300 147 327 32 17 68
-13 68 -59 0 -44 30 -110 93 -208 25 -40 55 -91 68 -115 l22 -44 43 130 44
130 -59 175 c-94 277 -102 399 -41 583 69 205 216 378 268 315 5 -7 10 -42 10
-78 -1 -51 7 -86 37 -165 20 -55 45 -129 55 -164 l17 -64 37 62 38 61 -16 145
c-20 179 -20 280 -1 368 36 173 183 377 326 453 58 32 85 21 81 -32 -7 -80 -6
-202 3 -307 l8 -109 49 50 50 49 8 189 c9 205 20 257 73 359 42 79 174 211
249 248 95 48 150 24 113 -50 -14 -29 -20 -73 -26 -193 -4 -85 -11 -166 -15
-179 -6 -21 2 -18 69 29 42 29 79 61 81 69 3 9 14 67 26 129 42 226 87 329
191 432 77 76 168 133 261 161 52 16 71 18 87 9 25 -13 29 -61 7 -80 -22 -18
-44 -85 -61 -190 -9 -52 -25 -118 -35 -147 -10 -29 -16 -53 -13 -53 3 0 46 18
97 41 55 24 129 69 186 113 128 98 179 132 251 167 160 80 413 78 579 -4 58
-28 65 -35 65 -61 0 -31 -6 -36 -77 -61 -27 -9 -95 -54 -155 -100 -182 -143
-286 -180 -478 -172 -66 3 -146 14 -201 27 l-91 23 -69 -33 -69 -34 85 -6 c94
-7 154 -22 215 -52 67 -34 105 -67 105 -92 0 -30 -15 -42 -63 -49 -21 -3 -86
-33 -145 -66 -128 -73 -218 -97 -325 -87 -77 7 -199 44 -264 81 l-42 23 -66
-47 -67 -46 118 -6 c118 -6 199 -27 219 -58 15 -26 -5 -59 -42 -72 -22 -7 -69
-42 -113 -83 -141 -134 -222 -175 -364 -184 -49 -3 -125 1 -170 7 l-83 13 -56
-59 c-30 -32 -55 -59 -53 -60 1 -1 29 5 61 14 86 24 271 24 308 0 41 -27 36
-60 -15 -94 -24 -16 -79 -75 -122 -132 -141 -185 -260 -246 -493 -255 l-98 -4
-35 -51 c-19 -28 -48 -74 -64 -102 l-29 -52 47 32 c117 81 261 124 413 125 92
1 105 -1 124 -21 25 -25 20 -70 -9 -80 -35 -12 -75 -61 -145 -173 -136 -221
-279 -319 -510 -350 -45 -6 -96 -14 -114 -16 -32 -5 -33 -6 -81 -157 -73 -226
-74 -218 11 -133 119 119 313 216 431 216 71 0 89 -44 37 -94 -31 -29 -52 -81
-96 -231 -73 -245 -214 -390 -477 -489 -62 -23 -63 -25 -69 -67 -4 -24 -10
-123 -14 -219 l-6 -175 40 80 c81 160 205 291 339 357 53 26 66 29 87 20 30
-14 33 -50 8 -89 -15 -23 -19 -61 -24 -238 -7 -237 -18 -288 -86 -404 -47 -79
-150 -190 -237 -256 -51 -38 -64 -54 -61 -70 3 -11 16 -72 30 -135 13 -63 44
-178 67 -255 l43 -140 7 100 c8 122 27 195 78 302 94 198 227 332 278 281 8
-8 10 -34 6 -82 -6 -65 -2 -82 35 -198 54 -166 71 -245 71 -343 0 -162 -49
-301 -167 -477 l-74 -111 47 -81 c67 -115 154 -249 160 -244 2 3 -3 36 -12 74
-21 88 -14 256 15 369 36 140 130 305 174 305 28 0 47 -30 47 -73 0 -52 19
-94 110 -246 39 -65 82 -150 95 -188 67 -190 55 -380 -38 -608 l-34 -83 106
-105 c129 -126 248 -230 292 -252 l32 -17 -22 33 c-37 56 -79 150 -98 219 -14
50 -18 102 -18 230 1 155 2 170 28 245 35 97 42 107 81 103 24 -2 33 -9 40
-33 22 -73 35 -93 132 -196 131 -138 175 -197 218 -290 63 -137 83 -328 52
-514 -8 -44 -13 -81 -12 -82 7 -9 217 -117 308 -158 473 -218 974 -328 1488
-327 412 0 760 56 1145 184 174 57 272 104 407 194 175 116 190 135 297 358
69 143 100 197 115 202 12 4 35 23 52 43 40 46 121 91 181 99 l46 7 34 128
c41 158 57 197 83 204 10 3 31 24 44 48 47 80 118 125 205 130 39 2 74 12 115
34 32 17 64 31 72 31 7 0 16 15 18 33 3 17 15 90 26 161 20 128 30 156 55 156
7 0 18 14 25 30 21 52 68 108 112 137 24 15 46 32 50 38 4 5 8 62 9 125 1 186
11 270 35 289 11 9 29 38 39 64 33 87 123 167 187 167 14 0 37 13 55 33 l31
32 -53 140 c-63 167 -71 198 -53 216 8 9 14 40 14 80 0 38 8 87 18 112 16 43
84 117 106 117 22 0 7 33 -66 141 -63 95 -75 119 -73 149 2 19 -3 62 -10 94
-21 94 -2 174 54 236 12 14 28 49 35 79 13 54 13 55 -16 79 -102 86 -144 132
-144 155 0 13 -15 53 -32 87 -28 54 -33 74 -33 134 0 52 5 80 20 103 10 18 17
34 14 36 -2 3 -40 26 -84 52 -96 58 -125 82 -125 108 0 11 -14 35 -31 55 -47
53 -69 109 -69 175 0 32 4 66 9 75 8 15 -9 128 -21 136 -2 2 -37 15 -78 29
-94 34 -140 61 -141 84 0 10 -22 35 -48 55 -67 50 -103 124 -100 205 3 85 -7
98 -88 113 -37 6 -107 21 -156 32 -77 17 -89 23 -102 49 -9 16 -21 29 -28 29
-25 1 -107 71 -132 114 -14 24 -29 68 -32 97 -4 33 -18 71 -37 102 l-31 50
-87 -7 c-79 -6 -89 -5 -108 14 -11 11 -30 20 -42 20 -60 1 -162 75 -174 128
-4 15 -31 48 -60 75 -73 66 -98 122 -90 198 3 32 2 59 -2 59 -4 0 -61 -14
-126 -30 -123 -31 -186 -38 -186 -20 0 6 -12 10 -27 10 -70 0 -163 52 -178 99
-3 10 -29 34 -58 54 -83 57 -107 116 -87 213 16 77 49 111 120 124 41 8 63 18
84 41 33 35 98 68 136 69 14 0 34 7 44 15 26 20 26 20 75 -16z m-5243 -175
c30 -15 57 -31 60 -36 5 -8 -83 -138 -93 -138 -3 0 -26 7 -52 17 -57 20 -89
13 -136 -29 -44 -38 -65 -77 -65 -120 0 -64 53 -103 116 -86 18 4 73 35 123
68 149 98 165 104 256 105 95 0 146 -21 224 -91 106 -96 137 -237 77 -355 -82
-163 -219 -246 -361 -220 -52 10 -185 67 -185 79 0 7 81 142 85 142 1 0 24 -9
50 -21 91 -40 171 -22 225 53 56 77 48 160 -20 206 -51 35 -91 25 -202 -46
-146 -95 -197 -115 -277 -110 -111 8 -208 73 -257 174 -22 46 -26 64 -22 121
4 75 27 130 85 201 97 119 238 152 369 86z m-505 -766 c124 -57 183 -142 182
-261 -1 -54 2 -67 12 -63 67 25 115 30 298 29 110 -1 201 -4 204 -6 2 -3 -16
-43 -42 -90 l-46 -85 -217 -4 c-131 -3 -228 -9 -244 -16 -28 -11 -88 -85 -88
-107 0 -7 83 -56 185 -110 102 -54 184 -101 183 -104 -58 -114 -74 -141 -80
-141 -6 0 -889 467 -897 475 -6 7 193 374 229 422 52 69 108 95 195 91 48 -3
87 -12 126 -30z m4717 -83 l40 -90 -24 -480 c-13 -264 -23 -481 -24 -482 0 -1
-27 -1 -60 -1 l-60 1 0 81 c0 45 -5 261 -10 482 l-10 401 46 98 c25 53 50 93
54 88 5 -4 26 -48 48 -98z m4919 -24 l43 -78 -360 -389 c-199 -214 -364 -390
-368 -392 -8 -2 -92 141 -92 156 0 4 36 43 80 87 44 44 80 83 80 88 0 4 -35
71 -77 147 -48 88 -83 140 -92 140 -9 0 -62 -11 -118 -24 -74 -16 -105 -20
-112 -12 -13 17 -83 146 -79 146 1 1 233 48 513 104 281 57 517 104 525 105 9
1 32 -31 57 -78z m-6379 -316 c43 -30 84 -60 89 -67 31 -38 454 -851 447 -857
-17 -15 -94 -55 -98 -50 -2 2 -117 186 -256 409 l-253 405 -8 80 c-9 94 -11
135 -5 135 3 0 40 -25 84 -55z m2890 -85 l-11 -105 -265 -403 c-166 -252 -270
-401 -278 -398 -7 3 -31 16 -53 31 l-42 26 26 43 c14 23 121 212 238 420 l214
378 89 57 c49 32 90 57 91 57 1 -1 -3 -49 -9 -106z m-1662 -252 c13 -189 24
-350 24 -359 0 -12 -11 -18 -35 -21 -19 -2 -35 -2 -35 1 0 3 -14 134 -31 290
l-31 285 38 78 c21 43 40 76 42 73 2 -2 15 -158 28 -347z m419 -77 c-45 -340
-39 -315 -77 -307 -17 3 -32 7 -34 9 -1 1 57 633 66 722 1 6 19 -28 41 -74
l39 -83 -35 -267z m-1240 130 c45 -35 51 -46 160 -301 62 -145 111 -268 109
-271 -2 -4 -17 -11 -32 -17 l-28 -10 -155 325 c-85 179 -156 329 -158 335 -5
14 45 -16 104 -61z m1934 -283 c-89 -178 -163 -325 -165 -327 -5 -6 -64 21
-64 29 0 4 53 124 118 266 l118 259 70 47 c38 26 72 47 77 47 4 1 -65 -144
-154 -321z m4394 100 c72 -207 81 -247 74 -313 -16 -154 -168 -286 -427 -371
-73 -24 -102 -27 -210 -28 -110 -1 -131 2 -175 22 -59 27 -107 71 -140 127
-25 42 -148 385 -141 392 4 4 946 331 957 332 4 1 32 -72 62 -161z m-5668 -43
c14 -93 28 -182 31 -196 4 -24 1 -27 -26 -31 -25 -4 -31 -1 -35 16 -3 12 -16
82 -30 158 l-26 136 27 54 c15 29 28 49 30 43 2 -5 15 -86 29 -180z m714 -80
c-31 -146 -35 -155 -57 -155 -12 0 -25 7 -28 15 -6 13 50 349 63 385 4 10 14
-4 30 -38 l25 -53 -33 -154z m-5626 206 c37 -13 67 -27 67 -33 0 -6 -32 -103
-70 -216 -39 -113 -69 -206 -68 -207 2 -1 49 -18 106 -38 73 -26 104 -33 107
-24 3 7 32 93 66 192 34 99 64 183 68 187 5 5 144 -36 160 -48 1 -2 -27 -89
-63 -194 -36 -105 -66 -195 -66 -199 0 -9 249 -95 256 -89 2 3 32 83 64 179
33 96 67 193 76 215 l15 42 79 -26 c44 -15 80 -29 80 -33 0 -9 -199 -591 -204
-596 -4 -4 -935 314 -954 326 -9 5 14 84 82 282 113 330 106 311 120 306 6 -2
41 -14 79 -26z m4006 -329 c111 -161 204 -298 207 -305 2 -7 -8 -20 -24 -29
l-28 -17 -174 232 c-164 218 -175 235 -181 287 -8 61 -11 136 -5 129 2 -2 94
-136 205 -297z m550 213 c11 -13 104 -295 100 -299 -10 -9 -51 -27 -53 -24 -4
5 -146 388 -146 394 0 6 88 -56 99 -71z m1404 -132 c-41 -104 -78 -192 -83
-196 -4 -5 -19 -3 -33 5 l-24 13 38 105 c22 58 46 124 55 148 12 32 29 51 67
77 29 19 53 35 53 35 1 0 -32 -84 -73 -187z m723 90 l-11 -92 -178 -226 c-152
-192 -181 -224 -196 -216 -46 25 -45 27 177 333 119 164 217 297 217 295 1 -1
-3 -43 -9 -94z m-1919 -115 c18 -19 48 -97 40 -104 -1 -1 -18 -5 -39 -9 -34
-7 -36 -5 -43 24 -7 34 2 111 14 111 4 0 17 -10 28 -22z m987 -25 c4 -21 2
-51 -2 -68 -8 -26 -13 -30 -38 -27 -41 5 -48 16 -35 53 11 33 48 79 62 79 4 0
10 -17 13 -37z m-1785 -273 c73 -88 129 -164 126 -170 -3 -5 -14 -14 -24 -20
-15 -8 -35 9 -123 109 -104 116 -106 118 -113 179 -4 34 -5 62 -2 62 2 0 64
-72 136 -160z m2680 70 c-7 -66 -10 -70 -139 -207 -43 -46 -82 -83 -87 -83 -5
0 -17 8 -26 18 -16 18 -10 27 119 175 75 86 137 157 138 157 1 0 -1 -27 -5
-60z m-1739 -35 c0 -23 3 -57 6 -74 4 -19 2 -31 -4 -31 -19 0 -29 32 -36 115
l-6 80 20 -24 c13 -15 20 -38 20 -66z m109 -110 c14 -53 14 -124 -2 -155 -7
-14 -37 -40 -67 -57 -62 -38 -116 -43 -181 -16 -41 16 -42 16 -60 -5 -22 -27
-49 -28 -77 -2 -30 28 -28 56 10 136 27 58 33 65 42 50 31 -53 91 -119 121
-133 29 -14 40 -15 76 -4 23 7 56 26 72 42 33 33 32 14 11 225 -5 50 -3 67 12
90 l19 28 6 -79 c4 -44 11 -98 18 -120z m387 170 c-5 -14 -85 -55 -107 -55 -5
0 -9 6 -9 13 0 12 110 68 119 61 2 -2 1 -10 -3 -19z m-80 -143 l25 -53 41 63
c22 35 50 74 62 86 22 25 95 67 102 59 12 -11 -34 -79 -68 -102 -47 -31 -98
-117 -98 -165 0 -20 7 -45 15 -58 35 -50 -37 -84 -105 -49 -34 17 -36 39 -5
75 14 16 25 40 25 53 -1 46 -37 105 -81 135 -40 27 -44 34 -47 74 l-3 45 56
-55 c31 -30 67 -79 81 -108z m-198 40 c3 -88 0 -116 -14 -148 l-18 -39 -9 122
c-9 107 -8 126 7 148 9 14 20 25 24 25 4 0 9 -49 10 -108z m650 46 c17 -17 15
-67 -3 -74 -8 -4 -27 -3 -43 1 -27 7 -27 7 -4 18 23 11 29 31 12 42 -5 3 -10
10 -10 16 0 13 34 11 48 -3z m-998 -12 c0 -7 -26 -33 -57 -57 -32 -23 -73 -54
-90 -67 -27 -20 -33 -21 -33 -8 0 12 162 146 177 146 1 0 3 -6 3 -14z m1234
-71 c-6 -16 -19 -20 -92 -30 -40 -5 -42 -4 -32 14 9 19 27 23 107 29 16 2 21
-2 17 -13z m-3144 -34 c20 -1 814 -481 843 -510 5 -5 -4 -31 -20 -59 l-29 -50
-429 226 -429 227 -63 85 c-34 47 -62 87 -62 90 -1 3 36 2 82 -2 45 -3 93 -7
107 -7z m437 -36 c21 -2 104 -58 267 -179 l237 -176 -22 -29 -21 -28 -306 209
c-169 115 -308 211 -311 214 -4 4 85 -2 156 -11z m2411 -12 c5 -17 -26 -29
-40 -15 -6 6 -7 15 -3 22 9 14 37 9 43 -7z m310 0 c-51 -116 -107 -192 -165
-226 -18 -11 77 175 105 206 23 24 69 39 60 20z m-2251 -122 c111 -97 120
-108 109 -125 -7 -11 -17 -21 -23 -23 -5 -2 -77 51 -159 118 -202 165 -190
150 -114 142 l65 -6 122 -106z m553 105 c0 -12 -168 -146 -184 -146 -23 0 7
34 82 92 93 71 102 76 102 54z m1214 -21 c-24 -59 -18 -93 24 -136 43 -42 76
-54 126 -45 41 8 86 41 86 64 0 9 -7 30 -15 46 -9 16 -14 30 -13 30 25 14 62
25 69 21 14 -9 11 -71 -7 -115 -20 -50 -67 -80 -136 -87 -108 -11 -179 27
-198 107 -16 67 0 116 44 136 17 7 32 13 33 14 1 0 -5 -16 -13 -35z m2194 -51
l-63 -87 -429 -213 c-236 -118 -431 -214 -435 -214 -6 0 -63 102 -58 105 1 1
187 111 414 243 444 260 412 246 571 250 l62 2 -62 -86z m-3313 37 c5 -29 2
-46 -10 -65 -11 -16 -17 -45 -16 -79 1 -86 20 -121 78 -136 20 -5 29 -15 31
-32 2 -20 -5 -28 -43 -47 -51 -25 -90 -28 -102 -9 -4 6 -8 30 -8 52 0 37 -3
41 -50 68 -44 25 -58 27 -117 24 -63 -4 -69 -2 -100 25 l-33 29 94 -5 c70 -5
108 -12 148 -30 l53 -25 0 97 c0 88 3 101 25 135 14 20 30 37 34 37 5 0 12
-18 16 -39z m122 -141 l4 -65 -35 85 c-37 86 -41 105 -29 136 12 31 55 -83 60
-156z m2782 165 c-3 -2 -144 -94 -314 -205 l-309 -200 -19 31 c-11 16 -18 31
-16 33 2 1 110 78 240 169 l236 166 84 4 c46 1 88 4 93 5 5 1 7 0 5 -3z
m-3363 -76 l28 -29 -27 -27 -26 -27 -27 25 c-25 23 -33 37 -48 86 -6 20 -5 21
33 11 21 -5 52 -23 67 -39z m2973 47 c-32 -32 -316 -245 -323 -243 -5 2 -15
12 -23 23 -12 18 -4 27 110 122 l122 102 59 0 c33 0 57 -2 55 -4z m-1778 -37
c-5 -13 -22 -33 -37 -45 -50 -35 -54 -37 -54 -16 0 17 88 97 97 88 2 -2 -1
-14 -6 -27z m1078 17 c31 -37 -30 -69 -83 -43 l-31 16 31 0 c23 1 33 7 37 21
6 23 29 26 46 6z m345 -38 c-8 -24 -27 -52 -41 -62 l-26 -19 -24 28 -24 27 21
23 c18 19 62 38 102 44 4 1 0 -18 -8 -41z m-2260 -20 c7 -12 3 -24 -15 -46
-13 -17 -32 -34 -41 -37 -22 -8 -58 11 -58 30 0 18 21 20 38 3 10 -10 14 -8
18 10 4 12 13 22 21 22 11 0 14 7 10 21 -6 23 11 21 27 -3z m-4207 -214 c263
-119 480 -218 482 -220 5 -4 -16 -174 -21 -180 -6 -6 -1041 -154 -1046 -149
-5 5 15 165 22 172 2 3 170 27 373 54 202 27 375 50 383 52 8 1 -146 72 -344
156 l-358 154 5 36 c4 20 9 60 13 89 4 28 8 52 10 52 2 0 218 -97 481 -216z
m10710 116 c8 -36 12 -72 11 -80 -2 -10 -129 -38 -498 -110 -272 -53 -497 -96
-499 -94 -6 5 -32 156 -28 161 9 8 951 191 977 190 22 -2 26 -9 37 -67z
m-4673 10 l25 -9 -30 -58 c-53 -100 -30 -184 62 -231 25 -12 69 -25 98 -29
l52 -6 -30 -31 c-17 -18 -31 -39 -31 -47 0 -8 18 -32 39 -53 22 -21 42 -48 45
-61 3 -12 17 -27 30 -33 22 -10 24 -16 19 -46 -7 -42 16 -58 45 -33 22 19 62
31 62 18 0 -19 -52 -71 -71 -71 -11 0 -34 7 -51 16 -25 13 -29 20 -25 42 4 19
-2 36 -21 59 -15 18 -38 46 -50 63 -13 17 -37 37 -54 46 -28 15 -31 14 -53 -6
l-23 -22 -16 30 c-15 29 -15 30 16 54 41 32 35 46 -41 98 -61 40 -91 81 -91
120 0 18 -6 20 -56 20 -66 0 -89 10 -109 50 -19 36 -12 70 22 102 l25 23 -7
-27 c-16 -62 26 -108 97 -108 26 0 72 62 83 111 7 33 6 32 39 19z m-1562 -63
c-9 -16 -23 -33 -29 -39 -21 -17 -16 16 8 57 16 26 24 33 30 24 4 -8 1 -25 -9
-42z m678 -42 c0 -47 3 -55 19 -55 22 0 31 19 31 66 0 29 3 34 23 34 22 0 23
-3 19 -55 -4 -50 -3 -55 16 -55 21 0 32 18 32 53 0 31 15 51 33 44 12 -4 13
-13 4 -52 -9 -38 -8 -48 4 -56 23 -15 26 -11 39 41 12 49 22 58 48 42 10 -7 9
-17 -3 -51 -16 -47 -13 -61 14 -61 12 0 24 15 35 45 10 25 19 45 21 45 2 0 10
-3 19 -6 13 -5 13 -12 -4 -54 -17 -42 -17 -49 -4 -54 26 -10 30 -7 49 37 11
23 20 43 21 45 1 2 12 -1 23 -8 l21 -11 -25 -48 c-21 -42 -22 -50 -9 -55 26
-10 31 -7 44 24 19 47 34 54 69 34 l29 -17 -25 -38 c-25 -38 -25 -69 -1 -69 7
0 24 16 37 35 13 19 29 35 37 35 26 0 25 -22 -2 -61 -24 -36 -26 -42 -12 -55
13 -14 18 -11 46 20 17 20 36 36 41 36 24 0 20 -23 -8 -56 -53 -59 -31 -78 26
-22 31 30 34 31 50 15 16 -16 15 -19 -20 -55 -29 -30 -34 -41 -25 -50 18 -18
27 -15 65 18 34 30 53 32 53 5 0 -7 -17 -27 -37 -43 -34 -28 -36 -32 -23 -46
14 -14 19 -13 52 9 43 29 54 31 62 8 7 -16 4 -19 -46 -50 -31 -19 -32 -21 -18
-43 8 -13 15 -12 49 8 51 28 53 28 74 -8 l18 -30 -46 -22 c-72 -35 -53 -74 21
-43 36 15 39 15 52 -2 12 -16 8 -20 -38 -40 -45 -20 -50 -25 -40 -42 10 -19
12 -19 56 -4 38 13 48 13 54 2 13 -19 5 -25 -45 -38 -25 -6 -45 -16 -45 -21 0
-13 26 -13 69 0 39 11 36 12 45 -17 5 -16 3 -23 -6 -23 -7 0 -30 -5 -50 -11
-28 -7 -38 -15 -38 -30 0 -15 5 -19 18 -15 9 2 246 48 527 101 l510 97 55 -28
c30 -15 48 -29 40 -31 -34 -6 -1119 -173 -1129 -173 -13 0 -15 -36 -3 -44 5
-3 305 27 667 66 l658 71 78 -39 c43 -21 77 -39 75 -42 -3 -2 -1427 -102
-1469 -102 -5 0 -7 -10 -5 -22 4 -27 -111 -27 1018 -2 l696 15 98 -47 c53 -25
95 -48 92 -51 -3 -4 -47 -25 -98 -48 l-93 -41 -790 37 c-958 46 -925 45 -925
19 0 -14 9 -21 33 -24 17 -3 331 -33 697 -66 366 -33 685 -63 709 -67 l43 -6
-81 -38 -82 -38 -632 84 c-348 46 -645 85 -662 87 -24 2 -31 -1 -33 -19 -4
-26 -61 -13 608 -133 278 -50 512 -93 520 -96 10 -4 -5 -15 -40 -30 l-54 -25
-511 111 c-280 60 -516 110 -522 110 -7 0 -13 -6 -13 -14 0 -7 18 -17 43 -22
34 -7 43 -14 45 -33 4 -25 -1 -26 -82 -5 -43 10 -33 -22 12 -36 47 -16 59 -27
45 -41 -8 -8 -23 -7 -56 4 -40 14 -46 14 -51 0 -10 -26 -7 -30 39 -47 47 -19
50 -22 35 -46 -8 -12 -14 -12 -45 3 -45 21 -61 21 -69 1 -8 -20 -11 -16 41
-43 l43 -21 -17 -35 -16 -34 -49 27 c-42 23 -50 25 -58 12 -14 -22 -14 -23 30
-50 22 -14 40 -31 40 -38 0 -25 -31 -24 -66 3 -33 25 -37 26 -52 11 -15 -14
-13 -18 23 -49 30 -26 36 -37 29 -50 -9 -16 -14 -14 -50 17 -38 32 -42 34 -57
18 -16 -15 -14 -19 20 -54 35 -36 36 -39 20 -55 -16 -16 -19 -15 -55 20 -32
31 -41 35 -50 24 -9 -11 -4 -23 23 -55 32 -37 34 -42 18 -51 -14 -7 -24 -2
-52 31 -30 35 -35 38 -49 24 -14 -13 -13 -19 12 -55 27 -39 28 -61 2 -61 -7 0
-25 18 -40 40 -23 35 -29 39 -45 28 -11 -7 -17 -17 -14 -23 4 -5 17 -26 29
-46 l22 -36 -29 -17 c-35 -21 -43 -16 -69 35 -18 34 -23 38 -40 29 -19 -10
-19 -11 2 -55 16 -34 19 -48 11 -56 -19 -19 -38 -4 -53 40 -13 41 -24 48 -48
33 -10 -7 -9 -18 5 -56 15 -40 16 -48 3 -56 -20 -12 -26 -6 -40 45 -9 31 -18
45 -30 45 -27 0 -29 -8 -15 -60 14 -52 12 -60 -16 -60 -12 0 -20 14 -29 51 -9
37 -16 49 -29 47 -17 -4 -19 -21 -7 -80 6 -33 5 -38 -12 -38 -21 0 -32 25 -32
73 0 23 -4 27 -26 27 -26 0 -27 -1 -20 -55 6 -53 6 -55 -18 -55 -23 0 -25 4
-28 53 -3 44 -6 52 -23 52 -17 0 -20 -8 -23 -52 l-3 -53 -35 0 -34 0 0 55 c0
47 -3 55 -19 55 -23 0 -31 -19 -31 -71 0 -34 -3 -39 -24 -39 -22 0 -23 3 -22
57 1 46 -2 58 -16 61 -13 2 -19 -9 -28 -51 -9 -46 -14 -54 -29 -50 -16 4 -17
10 -10 41 13 57 11 69 -13 75 -26 7 -35 -4 -43 -55 -5 -29 -12 -38 -26 -38
-28 0 -32 19 -15 67 15 44 13 53 -15 53 -11 0 -22 -13 -29 -37 -15 -47 -24
-57 -44 -50 -14 6 -13 12 4 52 24 57 24 52 0 65 -17 9 -22 5 -41 -40 -23 -53
-25 -55 -49 -40 -12 8 -11 16 9 56 22 46 22 49 5 61 -16 12 -21 8 -44 -32 -28
-50 -37 -53 -70 -27 l-23 18 28 43 c24 40 25 45 11 59 -8 9 -17 14 -19 11 -59
-83 -62 -85 -86 -70 -11 7 -8 17 19 51 31 39 32 43 16 58 -16 16 -19 15 -49
-21 -23 -28 -37 -36 -49 -32 -25 10 -23 14 19 57 35 36 36 39 20 55 -16 16
-19 15 -58 -22 -39 -39 -41 -39 -55 -20 -13 17 -11 22 23 57 28 29 34 41 25
50 -9 9 -21 4 -53 -22 -33 -26 -43 -30 -50 -19 -11 17 -11 29 -1 29 4 1 21 13
39 28 28 24 30 29 18 46 -13 17 -15 17 -47 -7 -51 -38 -56 -39 -67 -18 -9 16
-4 23 34 48 40 26 44 31 32 47 -13 18 -16 18 -58 -7 l-45 -27 -18 30 c-21 36
-18 41 34 65 27 12 40 24 38 34 -4 19 -30 19 -76 0 -28 -12 -34 -12 -42 1 -16
24 -12 28 40 45 52 17 55 21 40 45 -8 12 -15 12 -59 -2 -47 -15 -50 -15 -54 3
-4 14 5 21 44 34 28 10 49 23 49 31 0 8 -1 14 -2 14 -2 0 -27 -7 -55 -14 -29
-8 -53 -10 -53 -6 0 5 -3 15 -6 23 -4 11 8 18 45 27 33 8 51 17 51 27 0 11 -7
13 -27 9 -16 -4 -252 -49 -525 -101 l-497 -94 -56 25 c-31 14 -55 27 -53 29 2
2 261 43 576 91 562 87 572 89 572 111 0 13 -6 23 -12 23 -7 0 -307 -32 -665
-70 l-653 -70 -77 39 c-68 34 -75 40 -53 44 21 5 1402 98 1438 97 6 0 12 11
12 25 0 21 -5 25 -27 25 -16 -1 -401 -9 -857 -19 l-828 -19 -102 48 -101 48
45 20 c25 11 70 31 101 45 l56 26 853 -40 c568 -27 856 -37 863 -30 32 32 3
36 -634 94 -349 32 -683 63 -743 69 l-109 11 84 39 84 39 653 -86 c359 -48
659 -84 667 -81 21 8 19 34 -2 40 -10 2 -261 48 -558 101 -297 53 -548 100
-558 103 -15 6 -6 13 38 31 l57 24 519 -113 c286 -62 522 -110 525 -107 12 12
-8 26 -46 32 -44 8 -53 15 -44 40 5 11 13 15 28 10 59 -17 86 -18 86 -2 0 10
-19 22 -49 32 -36 12 -48 20 -44 31 7 18 25 18 70 -1 29 -12 38 -13 45 -3 15
24 8 33 -37 51 -44 19 -58 42 -31 53 8 3 32 -4 55 -15 40 -21 40 -21 51 -2 8
17 4 23 -32 43 -50 28 -53 36 -29 67 l19 24 44 -26 c42 -24 45 -25 56 -7 9 15
5 22 -29 45 -21 15 -39 34 -39 41 0 26 22 25 61 -2 36 -25 41 -26 55 -12 14
14 12 19 -25 49 -37 29 -40 34 -26 48 13 13 19 11 50 -19 27 -26 38 -31 47
-22 9 9 4 20 -25 50 -35 36 -36 39 -20 55 16 16 19 15 55 -20 34 -33 40 -35
53 -22 13 13 12 19 -15 49 -16 19 -29 40 -30 47 -1 26 27 17 59 -19 30 -35 35
-38 49 -24 14 13 13 19 -12 55 -27 39 -28 61 -2 61 7 0 25 -18 40 -41 22 -33
30 -38 42 -28 19 16 18 24 -11 66 l-25 37 28 18 c36 24 37 24 63 -19 12 -21
24 -40 25 -41 1 -2 12 -1 23 3 21 6 21 7 -4 55 -21 41 -22 49 -9 54 27 11 32
7 50 -39 18 -48 21 -50 44 -35 12 8 12 15 -2 59 -15 47 -15 50 3 54 14 4 21
-5 34 -44 17 -51 21 -54 44 -40 11 7 11 15 2 41 -18 52 -15 72 11 68 18 -2 24
-12 31 -45 7 -37 12 -43 33 -43 27 0 27 0 7 88 -4 17 -1 22 16 22 17 0 21 -8
27 -50 6 -45 9 -50 31 -50 25 0 25 1 18 55 -6 54 -6 55 19 55 24 0 26 -3 26
-50 0 -47 2 -50 25 -50 24 0 25 3 25 55 l0 55 35 0 35 0 0 -55z m1142 -17
c109 -49 138 -68 104 -68 -15 0 -236 98 -250 111 -26 24 41 4 146 -43z m-2315
-21 c71 -47 127 -103 136 -137 4 -14 -6 -11 -42 14 -25 18 -68 46 -94 61 -49
28 -69 51 -82 94 -9 28 -8 28 82 -32z m-772 -132 c149 -70 278 -131 288 -136
16 -9 16 -12 2 -40 -11 -21 -21 -28 -33 -25 -9 3 -132 55 -271 114 l-255 108
-54 78 -54 77 53 -24 c30 -14 176 -82 324 -152z m4142 43 l-54 -73 -268 -107
c-148 -59 -272 -105 -276 -103 -4 3 -11 18 -17 33 l-10 28 332 147 c182 80
334 146 339 146 4 1 -17 -32 -46 -71z m-3423 -24 c9 -3 16 -12 16 -19 0 -7 18
-15 44 -19 55 -9 91 -36 106 -81 16 -48 7 -68 -43 -95 -23 -13 -43 -24 -45
-26 -2 -1 -7 -32 -13 -69 -5 -36 -16 -79 -24 -95 -14 -26 -90 -81 -141 -101
-16 -6 -24 -16 -24 -33 0 -32 -45 -63 -66 -45 -16 13 -47 69 -58 105 -6 21 -4
21 62 16 79 -5 107 6 162 63 33 34 35 40 35 106 0 65 -2 73 -28 95 -15 13 -39
24 -53 24 -24 0 -30 8 -48 67 -6 19 4 15 75 -28 45 -27 91 -49 102 -49 44 0
76 63 45 88 -7 5 -40 17 -73 27 -64 18 -80 28 -96 57 -8 16 -6 18 20 18 16 0
36 -3 45 -6z m-152 -64 c-4 -53 -16 -70 -48 -70 -34 0 -39 18 -9 30 21 8 25
13 16 24 -9 10 -7 17 5 27 14 12 14 14 -3 27 -16 12 -15 13 12 10 29 -3 30 -4
27 -48z m-101 23 c32 -12 38 -18 26 -25 -18 -9 -89 20 -81 34 7 11 7 11 55 -9z
m2820 7 c23 -13 26 -68 4 -76 -8 -4 -27 -3 -43 1 -27 7 -27 7 -4 18 23 11 29
31 12 42 -13 8 -13 25 1 25 6 0 19 -5 30 -10z m4292 -127 l4 -93 -193 -107
c-106 -59 -191 -110 -188 -113 3 -2 94 -42 202 -87 l197 -82 6 -93 c4 -51 5
-95 3 -97 -2 -2 -139 58 -306 134 l-302 137 -209 -11 c-115 -7 -210 -11 -212
-9 -2 2 -6 40 -10 86 l-7 82 28 0 c16 0 113 5 217 11 l189 11 286 168 c158 93
288 166 289 162 1 -4 3 -49 6 -99z m-7498 -82 c134 -49 159 -62 157 -77 -2
-11 -7 -23 -12 -28 -5 -4 -72 13 -152 39 -124 40 -147 52 -176 83 -18 21 -37
45 -43 55 -9 16 -7 16 28 2 21 -8 110 -41 198 -74z m3095 69 c0 -13 -7 -20
-20 -20 -13 0 -20 7 -20 20 0 13 7 20 20 20 13 0 20 -7 20 -20z m73 4 c9 -10
-4 -34 -18 -34 -17 0 -28 17 -20 30 7 11 28 13 38 4z m678 -91 c-39 -47 -44
-49 -186 -92 -80 -24 -148 -41 -150 -39 -3 2 -6 15 -7 29 -3 23 6 27 177 86
99 34 186 62 193 62 7 1 -5 -20 -27 -46z m-714 21 c8 -21 -13 -42 -28 -27 -13
13 -5 43 11 43 6 0 13 -7 17 -16z m210 -176 c50 -28 54 -32 34 -40 -15 -5 -30
-3 -47 9 -16 10 -24 11 -22 4 4 -15 -133 -70 -192 -77 -25 -3 -56 -1 -70 5
-14 5 -18 10 -10 11 8 0 53 16 100 35 47 20 102 35 125 35 l40 0 -24 19 c-22
17 -21 22 7 30 1 1 28 -13 59 -31z m-3219 -4 c2 -2 -1 -18 -7 -37 -12 -35 -12
-35 -49 -25 -20 5 -50 22 -65 36 l-28 27 38 11 c32 9 90 3 111 -12z m188 -12
c14 -9 34 -47 34 -63 0 -8 -7 -6 -19 5 -13 12 -27 15 -40 11 -23 -7 -37 14
-27 40 6 16 33 20 52 7z m3327 -8 l28 -6 -22 -24 c-24 -25 -88 -49 -101 -36
-3 4 -8 20 -10 36 -2 24 2 31 22 37 14 4 32 5 40 3 8 -2 28 -6 43 -10z m-7023
-189 c212 -8 418 -15 459 -15 l74 0 -5 -80 c-3 -44 -7 -83 -11 -86 -3 -4 -210
1 -459 10 -249 9 -477 16 -505 16 l-53 0 0 39 c0 21 3 59 6 85 l7 46 51 0 c28
0 224 -7 436 -15z m10763 -642 l128 -56 -7 -76 c-4 -42 -10 -83 -15 -91 -5
-11 -151 -46 -516 -124 -279 -60 -514 -111 -521 -114 -14 -5 -13 31 4 149 l5
35 120 23 c94 18 119 27 119 40 0 9 7 75 15 146 8 72 15 139 15 151 0 17 -20
28 -110 65 l-111 44 6 75 c4 41 9 82 11 91 4 14 70 -12 367 -143 199 -87 420
-184 490 -215z m-10249 245 c3 -18 8 -56 11 -84 l5 -51 -309 -199 c-170 -109
-307 -200 -303 -201 4 -2 149 13 322 31 173 19 318 31 321 28 10 -11 21 -152
12 -152 -4 0 -219 -23 -478 -50 -258 -27 -484 -50 -502 -50 l-31 0 -7 74 c-4
41 -4 79 -1 84 3 6 145 99 315 208 171 109 309 200 307 201 -1 1 -150 -14
-330 -33 -181 -19 -330 -33 -332 -31 -2 1 -7 36 -12 76 -6 51 -5 74 2 77 15 5
922 101 968 103 34 1 37 -1 42 -31z m3327 -209 c16 -11 37 -33 49 -49 l20 -29
-57 -11 c-32 -7 -75 -21 -95 -31 -32 -16 -38 -25 -44 -66 -10 -68 11 -119 64
-160 51 -39 97 -43 135 -13 24 19 31 20 66 9 46 -14 45 -24 -2 -34 -17 -4 -59
-20 -93 -35 -64 -29 -82 -55 -63 -91 19 -35 47 -33 111 10 58 39 110 52 122
32 9 -15 -41 -54 -63 -48 -12 3 -27 -4 -41 -18 -47 -50 -121 -56 -171 -16 -22
18 -23 22 -13 71 l11 53 -58 57 c-32 31 -61 70 -65 86 -13 51 11 150 45 190
33 37 37 54 20 86 -8 16 -8 23 2 30 20 13 88 0 120 -23z m2598 9 c4 -13 11
-45 15 -73 7 -50 7 -50 -12 -30 -23 23 -41 125 -23 125 6 0 15 -10 20 -22z
m-2774 -48 c26 -27 27 -30 9 -30 -11 0 -33 14 -49 30 -26 27 -27 30 -9 30 11
0 33 -13 49 -30z m3019 -39 c17 -18 21 -34 21 -86 0 -35 -5 -69 -10 -74 -7 -7
-9 4 -7 33 4 52 -14 71 -71 71 -46 0 -63 19 -53 60 7 26 9 27 53 22 28 -3 54
-13 67 -26z m-3194 -20 c8 -29 7 -33 -18 -42 -28 -11 -108 -4 -116 10 -8 12
53 53 88 61 37 8 35 10 46 -29z m2865 18 c4 -5 4 -37 0 -71 -6 -53 -9 -58 -22
-45 -11 11 -13 27 -8 71 7 54 16 68 30 45z m651 -61 c37 -32 37 -33 13 -39
-35 -10 -82 -10 -98 0 -9 6 -11 18 -6 40 9 42 42 41 91 -1z m-524 -13 c50 -14
118 -51 118 -65 0 -8 -146 30 -168 44 -7 4 -17 17 -23 28 -10 19 -9 20 7 13
11 -4 40 -13 66 -20z m-2961 -61 c5 -15 8 -28 7 -29 -9 -7 -398 -133 -398
-128 0 3 14 24 32 47 17 22 33 42 33 44 3 4 288 90 303 91 7 1 17 -11 23 -25z
m2793 -20 c17 -17 19 -25 10 -48 -5 -13 -9 -12 -23 6 l-18 21 -15 -21 c-16
-23 -28 -19 -28 9 0 21 26 49 45 49 7 0 21 -7 29 -16z m908 -140 c20 -26 36
-50 34 -51 -4 -4 -368 128 -379 137 -4 4 -3 18 2 32 l10 26 148 -47 c146 -47
148 -48 185 -97z m-560 93 c25 -39 -1 -97 -42 -97 -22 0 -30 -5 -30 -18 0 -10
-14 -31 -31 -48 -37 -34 -73 -109 -63 -127 4 -6 16 -18 27 -26 17 -12 17 -14
1 -32 -22 -24 -29 -24 -65 2 -38 27 -52 16 -75 -54 -23 -74 -50 -113 -84 -127
-25 -10 -29 -17 -24 -34 27 -82 23 -116 -15 -150 -25 -23 -69 -23 -108 -2
l-28 15 31 1 c17 0 43 9 58 21 21 16 26 29 26 62 0 23 -4 47 -8 53 -10 17
-107 44 -131 37 -18 -5 -21 -1 -21 27 0 30 2 32 28 26 15 -4 52 -10 82 -12 47
-5 60 -2 89 18 65 44 76 69 76 169 0 49 2 89 3 89 2 0 15 -9 29 -20 40 -32 57
-25 94 35 18 30 41 57 50 60 10 3 20 19 24 35 5 23 12 29 38 32 24 2 33 8 35
26 2 14 -3 24 -15 29 -21 8 -33 22 -33 41 0 15 69 -11 82 -31z m-2482 18 c0
-13 -68 -51 -76 -42 -6 6 13 25 41 40 37 20 35 20 35 2z m2237 -1 c8 -21 -13
-42 -28 -27 -13 13 -5 43 11 43 6 0 13 -7 17 -16z m-2357 -23 c-14 -26 -13
-28 10 -34 11 -3 20 -13 20 -22 0 -11 5 -15 15 -11 19 7 19 -8 0 -24 -13 -11
-21 -7 -50 21 -46 45 -48 89 -3 89 15 0 17 -3 8 -19z m2438 2 c5 -17 -26 -29
-40 -15 -6 6 -7 15 -3 22 9 14 37 9 43 -7z m-2920 -94 c-3 -9 -652 -299 -670
-299 -4 0 16 32 45 72 l54 72 274 107 274 108 13 -25 c7 -14 12 -30 10 -35z
m2852 31 c0 -11 -6 -20 -14 -20 -18 0 -29 16 -21 30 11 18 35 11 35 -10z m683
-130 l262 -111 51 -72 c29 -40 51 -73 49 -75 -2 -3 -561 255 -637 294 -25 13
-26 17 -17 44 6 16 15 30 20 30 5 0 127 -50 272 -110z m-905 -23 c-30 -131
-38 -157 -48 -157 -14 0 -13 13 16 137 18 79 29 110 38 107 11 -4 9 -22 -6
-87z m-2562 -8 c14 -28 22 -55 17 -59 -4 -4 -192 -115 -418 -246 l-410 -238
-108 -5 c-59 -3 -107 -4 -107 -1 0 3 29 42 63 88 l63 83 429 214 c237 117 433
214 437 214 4 1 19 -22 34 -50z m558 12 c3 -5 -29 -26 -72 -47 -56 -27 -93
-39 -137 -42 l-60 -4 100 51 c94 48 156 63 169 42z m3126 -294 l295 -155 62
-88 c35 -48 61 -89 59 -91 -1 -2 -50 1 -108 6 l-105 9 -394 242 c-217 133
-400 248 -408 255 -11 11 -9 21 15 63 l28 51 131 -69 c71 -38 263 -138 425
-223z m-3062 206 c5 -37 -37 -50 -96 -31 l-47 16 38 1 c30 1 37 5 37 22 0 17
5 20 33 17 24 -2 33 -8 35 -25z m6020 -139 c262 -75 481 -140 485 -144 8 -7
-25 -145 -36 -157 -3 -2 -89 21 -193 50 -104 30 -190 54 -192 52 -6 -5 -90
-310 -87 -313 3 -4 240 -73 346 -102 l37 -10 -22 -74 c-12 -41 -25 -78 -29
-82 -5 -5 -960 261 -976 272 -4 4 30 139 39 154 4 6 89 -14 215 -50 115 -33
212 -56 216 -52 6 6 89 289 89 304 0 3 -93 32 -206 64 -114 32 -208 64 -211
70 -5 13 34 154 43 154 3 0 220 -61 482 -136z m-5888 99 c-1 -17 -37 -51 -67
-62 -17 -7 -71 -54 -120 -105 -98 -102 -124 -115 -204 -97 -64 15 -93 40 -103
94 -14 70 5 124 50 143 23 10 40 11 51 5 14 -7 13 -10 -6 -16 -12 -4 -29 -22
-38 -40 -14 -30 -15 -38 -2 -72 9 -22 27 -45 47 -56 49 -29 85 -11 207 103 97
92 112 101 173 109 6 0 12 -2 12 -6z m-653 -69 c-3 -3 -109 -79 -237 -169
l-232 -163 -90 -7 c-49 -4 -91 -6 -93 -4 -2 3 137 95 308 205 l312 201 19 -29
c10 -16 16 -31 13 -34z m-3220 21 c131 -39 223 -204 210 -378 -8 -124 -77
-200 -231 -255 -78 -29 -669 -192 -693 -192 -6 0 -20 36 -31 80 -18 72 -18 80
-3 84 9 3 135 37 281 76 434 116 447 121 483 190 34 66 6 172 -56 211 -51 32
-127 21 -485 -76 -178 -47 -325 -85 -326 -83 -1 2 -12 38 -23 81 -16 57 -18
79 -10 82 48 18 629 167 692 179 105 19 132 19 192 1z m5501 -11 c23 -16 29
-57 13 -82 -6 -10 -10 -7 -15 12 -4 17 -13 26 -27 26 -25 0 -35 25 -19 45 16
19 20 19 48 -1z m939 -190 c159 -108 293 -200 298 -206 7 -7 -19 -8 -80 -3
l-90 7 -224 167 c-124 91 -229 169 -234 172 -10 7 21 58 35 59 4 0 137 -88
295 -196z m-1128 96 c-12 -27 -25 -47 -30 -44 -14 8 -11 28 12 81 17 40 22 45
30 31 7 -13 4 -32 -12 -68z m-1409 46 c19 -24 8 -61 -19 -64 -32 -5 -50 14
-22 23 22 7 27 20 11 30 -5 3 -10 10 -10 16 0 14 26 11 40 -5z m1534 -75 c35
-59 48 -93 52 -133 5 -59 5 -59 -52 37 -51 85 -65 121 -58 150 3 14 7 25 9 25
1 0 23 -36 49 -79z m-2137 22 c13 -19 7 -26 -107 -121 -123 -103 -151 -117
-218 -110 -30 3 -23 9 131 130 89 70 166 126 171 124 5 -1 15 -11 23 -23z
m1903 -2 c0 -11 -19 -36 -42 -56 -35 -29 -44 -33 -46 -20 -4 16 63 95 80 95 4
0 8 -9 8 -19z m1013 -141 l159 -130 -49 0 c-26 0 -60 6 -75 14 -46 24 -238
198 -231 210 11 20 25 36 32 36 3 0 77 -59 164 -130z m-2113 104 c11 -13 10
-18 -7 -35 -16 -16 -30 -19 -74 -17 -51 4 -52 5 -21 12 20 6 32 15 32 26 0 9
3 20 7 23 12 13 50 7 63 -9z m1170 -60 c0 -13 -4 -24 -8 -24 -5 0 -19 -9 -32
-20 -13 -11 -30 -20 -40 -20 -19 0 -40 19 -40 37 0 17 27 17 34 1 3 -10 8 -9
18 3 7 8 21 18 30 22 11 4 15 12 12 22 -5 11 -2 14 10 9 9 -3 16 -17 16 -30z
m-1890 1 l23 -25 -21 -23 c-21 -22 -91 -52 -100 -42 -14 13 46 115 68 115 4 0
17 -11 30 -25z m1632 -10 c10 -22 8 -29 -11 -49 -13 -13 -31 -26 -41 -29 -18
-5 -18 -3 -4 18 8 12 12 30 8 39 -17 44 28 64 48 21z m-1212 -67 c0 -37 24
-48 110 -48 39 0 80 5 91 10 16 9 19 7 19 -13 0 -33 24 -51 58 -44 21 4 31 1
40 -14 16 -26 62 -25 69 1 3 11 13 20 22 20 9 0 27 3 40 7 l24 6 -19 -32 c-40
-69 -111 -93 -149 -51 -11 12 -31 20 -50 20 -18 0 -43 8 -56 18 -13 11 -50 22
-82 26 -32 3 -73 12 -91 20 -27 11 -37 11 -58 0 -50 -26 -100 -27 -143 -2 -35
20 -40 29 -43 63 l-4 40 40 -43 c42 -46 48 -48 87 -30 26 12 32 23 15 33 -21
13 -9 43 23 58 29 15 33 15 45 0 6 -9 12 -29 12 -45z m1118 45 c-2 -9 -24 -29
-51 -45 -40 -23 -47 -25 -47 -10 0 9 19 29 43 44 49 32 60 34 55 11z m-398 5
c0 -2 -13 -39 -30 -83 -18 -49 -42 -91 -61 -110 -17 -16 -29 -23 -26 -15 3 8
16 48 29 89 21 69 55 121 78 121 5 0 10 -1 10 -2z m1457 -20 c16 -18 43 -77
43 -93 0 -10 -85 25 -102 43 l-22 22 24 25 c29 31 31 31 57 3z m-1571 -13
c-11 -8 -34 -15 -51 -15 -18 0 -68 -3 -111 -7 -72 -6 -78 -5 -66 10 14 17 54
22 177 25 64 1 68 0 51 -13z m268 1 c-4 -11 -66 -26 -110 -26 -27 0 -1 29 29
33 71 9 87 7 81 -7z m709 -11 c50 -35 71 -77 63 -129 -9 -54 -48 -119 -91
-152 -30 -22 -42 -26 -80 -22 -27 4 -59 16 -80 32 -30 23 -35 33 -35 68 l0 41
38 -41 c31 -34 46 -42 73 -42 76 0 139 62 139 137 0 36 -29 63 -68 63 -20 0
-23 4 -18 23 3 12 6 28 6 35 0 18 11 15 53 -13z m-599 -19 c-4 -9 -28 -28 -55
-42 -45 -22 -49 -23 -49 -6 0 12 18 27 53 44 28 14 53 25 55 23 1 -1 0 -10 -4
-19z m-120 -11 c-4 -8 -16 -17 -28 -20 -41 -8 -96 -11 -96 -4 0 14 27 28 65
32 22 2 45 4 52 5 7 1 10 -4 7 -13z m391 -5 c17 -8 32 -15 33 -16 14 -9 -16
-48 -49 -65 -46 -23 -43 -39 9 -39 66 0 67 -12 7 -69 -62 -59 -107 -81 -163
-81 -23 0 -45 -6 -52 -15 -9 -11 -23 -13 -51 -9 -21 4 -52 1 -69 -4 -38 -14
-82 -6 -110 20 -20 19 -21 19 -56 -3 -28 -17 -45 -20 -81 -16 -49 5 -96 34
-101 61 -4 16 -2 16 30 0 47 -25 112 -24 138 1 31 31 41 78 24 110 -13 25 -12
29 3 41 10 7 21 14 24 14 8 0 19 -64 19 -113 0 -54 15 -77 49 -77 35 0 91 18
112 37 13 11 21 11 52 -2 64 -26 105 -20 145 23 l36 37 -28 3 c-15 2 -41 -1
-57 -7 -26 -9 -29 -8 -29 12 0 30 7 38 63 76 37 25 47 38 47 60 0 27 8 44 19
38 3 -1 20 -9 36 -17z m-1562 -4 c9 -7 17 -18 17 -24 0 -6 -61 -82 -137 -169
l-136 -157 7 64 c7 63 9 66 84 148 42 45 90 98 106 117 33 39 34 40 59 21z
m1755 -14 c2 -7 -3 -12 -12 -12 -9 0 -16 7 -16 16 0 17 22 14 28 -4z m701
-122 c102 -116 116 -143 109 -208 -3 -30 -8 -26 -123 115 -66 81 -124 153
-129 161 -6 11 -2 20 15 33 13 10 25 17 26 15 1 -1 47 -53 102 -116z m-1233
55 c7 -17 34 -21 34 -5 0 7 6 7 19 0 26 -13 29 -13 34 8 4 16 5 15 12 -2 6
-13 3 -23 -10 -32 -10 -7 -22 -11 -26 -8 -5 2 -17 -1 -29 -8 -27 -17 -54 0
-58 36 -4 28 15 36 24 11z m-1283 -323 c-113 -158 -212 -294 -219 -302 -17
-17 -16 -18 -4 87 l9 82 128 163 c70 90 151 193 181 231 l53 67 29 -20 29 -21
-206 -287z m937 302 c0 -11 -79 -120 -107 -147 -53 -50 -131 -54 -214 -11 -37
18 -38 27 -2 13 72 -27 179 8 220 72 33 53 60 79 83 79 11 0 20 -2 20 -6z
m1538 -243 l170 -229 7 -94 c6 -83 5 -91 -8 -73 -8 11 -102 149 -210 307 -192
282 -195 287 -173 302 11 8 26 15 33 15 6 1 88 -102 181 -228z m-2108 114 c-1
-5 -105 -197 -233 -425 l-232 -415 -93 -63 -93 -64 6 64 c17 163 6 139 240
498 120 184 238 365 262 403 l44 67 50 -27 c27 -16 49 -32 49 -38z m2062 -375
l250 -405 9 -104 c5 -57 7 -106 5 -108 -5 -5 -158 100 -174 119 -17 22 -442
833 -442 845 0 12 79 62 94 59 4 -1 121 -184 258 -406z m-1952 325 l30 -15
-24 -53 c-13 -28 -67 -149 -120 -267 l-97 -215 -80 -53 -79 -52 167 335 c93
184 169 335 171 335 2 0 16 -7 32 -15z m1679 -344 c83 -178 150 -325 148 -327
-1 -2 -35 19 -74 46 l-71 50 -73 172 c-40 95 -90 213 -111 262 -21 49 -38 93
-38 97 0 12 54 39 61 31 4 -4 75 -153 158 -331z m-1522 265 c-2 -6 -26 -74
-53 -152 -48 -140 -49 -141 -97 -173 -27 -18 -50 -31 -52 -29 -2 2 31 89 73
194 l77 191 28 -10 c15 -5 26 -14 24 -21z m1294 -182 c38 -103 68 -189 66
-190 -1 -2 -24 11 -49 27 -46 30 -47 32 -94 172 -26 78 -49 147 -51 153 -4 10
46 36 55 29 2 -2 35 -88 73 -191z m-1164 151 c19 -5 20 -10 12 -37 -5 -17 -21
-45 -36 -60 l-28 -29 -11 38 c-13 47 1 106 25 99 9 -2 26 -7 38 -11z m968 -26
c10 -31 -4 -111 -18 -106 -19 6 -57 68 -57 93 0 36 65 47 75 13z m-805 -28 c0
-26 -60 -354 -68 -375 -7 -16 -12 -9 -31 37 l-23 56 32 148 c18 81 34 151 36
154 8 13 54 -4 54 -20z m653 -3 c3 -13 17 -85 32 -160 l26 -137 -26 -52 c-15
-28 -28 -49 -30 -47 -1 1 -15 82 -29 178 -15 96 -29 187 -32 202 -4 20 -1 27
13 31 35 9 41 7 46 -15z m-501 -43 c-9 -114 -64 -690 -66 -692 -2 -2 -19 34
-40 80 l-37 83 36 274 c20 151 38 281 41 288 2 8 16 12 36 10 32 -3 33 -4 30
-43z m358 38 c0 -5 14 -137 31 -294 l30 -287 -39 -78 -40 -79 -6 35 c-4 29
-46 651 -46 687 0 12 19 20 53 22 9 0 17 -2 17 -6z m-150 -115 c0 -62 5 -281
10 -487 l9 -373 -48 -97 -49 -96 -37 80 c-20 44 -40 89 -45 100 -5 15 32 958
39 983 1 1 28 2 61 2 l60 0 0 -112z m-4417 -125 c-3 -16 -25 -108 -49 -206
l-42 -179 32 -19 c17 -11 97 -59 178 -107 81 -48 148 -90 148 -93 0 -3 -93
-13 -207 -22 -114 -10 -208 -18 -209 -20 -1 -1 -24 -95 -50 -210 -26 -114 -48
-206 -49 -205 -2 2 -40 92 -85 200 -80 191 -83 197 -109 193 -54 -9 -383 -36
-387 -32 -3 2 62 62 143 132 81 69 152 132 157 139 5 8 -21 80 -73 201 -44
104 -79 190 -77 192 2 2 82 -43 177 -101 95 -59 178 -106 184 -106 5 1 78 61
160 135 83 73 153 134 158 134 4 1 4 -11 0 -26z m9090 -75 c-56 -239 -70 -303
-67 -309 2 -3 82 -53 178 -110 97 -57 176 -107 176 -110 0 -3 -73 -11 -162
-18 -90 -7 -184 -15 -210 -18 l-47 -6 -26 -116 c-15 -64 -37 -158 -49 -210
l-22 -94 -78 189 c-44 104 -83 194 -87 199 -6 8 -65 5 -191 -6 -101 -10 -196
-18 -211 -18 -24 -1 -5 19 130 135 87 75 159 140 161 144 1 4 -34 91 -78 195
-44 103 -79 189 -77 191 1 2 81 -44 177 -101 96 -58 180 -105 185 -104 6 0 78
61 160 134 83 74 153 134 156 135 4 0 -4 -46 -18 -102z m-8304 -917 l61 -70
-80 -202 c-45 -111 -79 -204 -76 -206 2 -3 98 23 212 56 l207 61 56 -61 c31
-34 59 -67 63 -74 5 -9 -57 -29 -230 -74 -130 -33 -276 -71 -323 -84 l-86 -23
-158 -144 -159 -143 -58 64 c-53 60 -56 65 -40 80 9 9 82 74 162 146 l145 131
114 306 c63 168 117 306 121 306 4 0 35 -31 69 -69z m7366 -606 c236 -135 431
-248 434 -251 6 -6 -44 -58 -92 -96 l-38 -30 -82 47 c-45 27 -92 54 -103 62
-20 13 -29 7 -140 -93 -66 -59 -121 -112 -123 -117 -2 -5 18 -53 43 -107 25
-54 46 -102 46 -108 0 -16 -122 -124 -130 -115 -4 4 -105 224 -224 488 l-217
480 68 62 68 62 30 -19 c17 -10 223 -129 460 -265z m-696 -9 c28 -35 51 -66
51 -69 0 -4 -101 -86 -188 -153 -2 -1 102 -136 230 -301 128 -164 246 -314
261 -334 l28 -37 -67 -53 -67 -53 -18 25 c-89 119 -497 633 -504 636 -6 1 -50
-29 -99 -67 -49 -39 -92 -70 -96 -70 -4 0 -31 30 -59 66 l-51 66 262 204 c143
112 262 204 264 204 1 0 25 -29 53 -64z m-5893 -96 c175 -86 254 -251 214
-443 -26 -126 -157 -327 -271 -414 -153 -117 -296 -142 -434 -74 -223 110
-285 332 -161 578 44 89 111 177 189 249 150 140 315 177 463 104z m5209 -399
c56 -26 110 -84 146 -156 56 -115 49 -218 -22 -299 l-39 -44 47 -11 c25 -7 64
-21 87 -33 40 -20 313 -205 320 -217 2 -3 -35 -27 -83 -53 l-88 -47 -84 56
c-148 99 -263 169 -298 182 -28 9 -44 8 -82 -4 -26 -9 -52 -22 -58 -29 -8 -9
14 -59 84 -192 52 -98 95 -182 95 -186 0 -8 -122 -78 -137 -78 -6 0 -118 201
-248 447 -215 403 -236 447 -221 459 30 21 346 186 394 205 61 23 136 23 187
0z m-4345 -98 c85 -41 139 -89 175 -154 27 -49 30 -62 30 -149 0 -136 3 -132
-94 -108 l-81 20 0 55 c0 100 -58 169 -161 192 -114 25 -229 -57 -308 -220
-76 -159 -82 -283 -17 -372 31 -43 115 -79 183 -80 86 0 100 7 133 72 l29 58
-81 39 c-44 21 -82 42 -84 46 -2 3 11 40 30 82 l35 76 162 -80 c89 -43 163
-81 165 -83 2 -1 -37 -85 -86 -185 -73 -149 -94 -184 -117 -194 -46 -20 -249
-16 -310 5 -75 26 -164 87 -201 138 -103 140 -103 347 0 554 68 135 159 234
262 287 66 34 86 38 181 35 77 -3 99 -8 155 -34z m499 -227 l85 -23 41 -211
c23 -117 44 -214 46 -217 4 -4 222 242 276 312 10 13 22 12 103 -9 50 -13 90
-28 89 -33 -1 -6 -100 -117 -220 -249 -130 -142 -222 -251 -228 -270 -5 -17
-31 -110 -56 -207 l-47 -176 -79 20 c-52 13 -79 24 -79 34 0 7 22 98 50 201
27 103 50 196 50 207 0 17 -125 601 -135 633 -6 16 5 15 104 -12z m3152 -447
c169 -239 304 -437 300 -440 -12 -11 -161 -50 -170 -45 -5 3 -36 46 -70 96
-34 49 -67 90 -73 90 -16 0 -279 -80 -298 -90 -12 -7 -15 -32 -15 -126 l0
-118 -70 -22 c-38 -13 -77 -23 -85 -24 -13 0 -15 43 -13 342 2 189 6 430 9
536 l6 192 77 24 c42 13 80 23 86 22 5 -1 147 -198 316 -437z m-833 269 c-8
-13 -70 -110 -137 -215 l-122 -193 196 -291 c108 -160 195 -292 193 -294 -2
-2 -50 -8 -107 -14 -83 -9 -106 -9 -113 1 -4 7 -67 109 -139 226 -73 117 -135
210 -138 205 -4 -4 -31 -45 -60 -91 l-54 -82 17 -152 c8 -83 15 -153 13 -154
-1 -2 -39 -7 -85 -11 -71 -8 -82 -7 -83 6 0 9 -24 238 -52 508 l-53 493 31 4
c16 3 54 8 82 11 63 7 56 26 78 -210 26 -264 8 -265 175 13 l143 240 96 9
c149 15 136 16 119 -9z m-1191 -34 c28 -3 44 -11 47 -22 19 -66 238 -1023 235
-1026 -9 -8 -173 15 -180 25 -3 6 -17 60 -29 120 l-23 109 -31 1 c-17 0 -91 6
-165 13 l-134 12 -22 -51 c-12 -27 -32 -78 -45 -112 l-22 -62 -82 6 c-44 3
-85 9 -89 13 -6 6 167 432 389 957 15 36 5 35 151 17z" />
        <path
            d="M12146 15333 c-71 -74 -125 -138 -120 -142 5 -4 48 -29 97 -55 62
-34 88 -43 92 -34 7 22 66 360 63 363 -2 1 -61 -58 -132 -132z" />
        <path
            d="M7115 15318 c3 -13 21 -95 41 -183 19 -88 36 -161 37 -162 3 -2 178
95 186 103 6 6 -226 241 -252 255 -15 9 -17 7 -12 -13z" />
        <path
            d="M10761 14316 c-31 -11 -74 -51 -83 -76 -1 -5 -27 -13 -57 -17 -76 -9
-103 -35 -109 -104 -4 -48 -1 -59 23 -87 14 -17 43 -41 64 -53 21 -12 45 -36
54 -55 20 -40 68 -67 124 -68 37 -1 48 4 85 41 l42 42 -24 27 c-14 14 -53 48
-87 76 -39 31 -63 57 -63 69 0 25 54 49 108 49 21 0 41 2 44 5 3 3 -7 40 -22
83 -30 84 -39 90 -99 68z" />
        <path
            d="M8045 14223 c-109 -78 -169 -153 -204 -256 -24 -68 -56 -225 -48
-233 10 -10 134 76 177 122 70 76 110 182 135 357 4 26 3 47 -1 47 -5 0 -31
-17 -59 -37z" />
        <path
            d="M8875 14204 c-55 -9 -138 -35 -186 -60 -57 -28 -252 -174 -245 -182
3 -3 36 -11 73 -18 181 -35 331 4 480 125 34 28 81 64 103 80 l41 30 -38 10
c-45 12 -185 21 -228 15z" />
        <path
            d="M11465 13961 c-17 -10 -39 -30 -48 -45 -16 -24 -23 -26 -85 -26 -78
0 -107 -15 -128 -66 -33 -78 -11 -142 70 -210 32 -26 50 -51 57 -76 13 -49 67
-86 135 -94 46 -6 52 -4 101 36 l52 43 -20 29 c-12 16 -52 63 -90 104 -38 40
-69 77 -69 82 0 4 6 17 14 27 11 15 30 19 98 23 l84 4 -20 94 -19 94 -51 0
c-32 0 -62 -7 -81 -19z" />
        <path
            d="M7373 13798 c-109 -114 -139 -193 -150 -387 l-6 -115 30 22 c95 68
174 195 192 312 13 78 14 230 3 230 -5 0 -36 -28 -69 -62z" />
        <path
            d="M8115 13717 c-50 -17 -202 -93 -209 -106 -11 -18 118 -43 202 -40 75
4 89 8 186 58 58 30 106 58 106 62 0 28 -219 48 -285 26z" />
        <path
            d="M12068 13623 l-46 -27 -58 18 c-104 33 -144 23 -194 -46 -61 -84 -59
-136 10 -250 29 -49 40 -78 40 -108 0 -69 36 -118 117 -159 23 -11 53 -21 67
-21 19 0 132 41 154 56 6 4 -61 162 -96 226 -30 54 -35 71 -26 85 17 27 74 27
156 -1 40 -13 74 -23 75 -23 7 8 23 240 17 246 -18 16 -78 31 -123 31 -31 0
-61 -9 -93 -27z" />
        <path
            d="M6841 13335 c-30 -33 -69 -94 -96 -148 -58 -119 -71 -206 -54 -369 6
-62 12 -114 14 -116 4 -4 187 233 203 264 22 41 25 160 8 293 -9 69 -18 126
-20 128 -2 2 -26 -22 -55 -52z" />
        <path
            d="M7585 13376 c-73 -18 -120 -46 -209 -121 -86 -74 -87 -85 -4 -85 126
0 218 41 326 145 l77 74 -70 0 c-38 0 -92 -6 -120 -13z" />
        <path
            d="M12410 13167 c-23 -12 -56 -42 -74 -66 -41 -57 -42 -128 -2 -216 23
-49 26 -69 21 -107 -10 -80 28 -145 112 -195 l43 -25 80 18 c44 9 80 20 80 25
0 25 -34 162 -56 225 -42 124 -5 145 132 74 43 -22 78 -39 80 -37 1 1 16 54
33 117 l31 115 -21 18 c-29 23 -123 50 -151 42 -13 -3 -39 -13 -59 -21 -35
-15 -38 -15 -95 14 -87 43 -105 45 -154 19z" />
        <path
            d="M7220 12919 c-72 -10 -164 -44 -217 -81 -23 -15 -63 -56 -89 -91 -26
-34 -63 -79 -83 -99 l-35 -38 31 0 c94 0 228 50 297 110 51 45 178 212 159
209 -4 -1 -33 -5 -63 -10z" />
        <path
            d="M6311 12710 c-44 -78 -71 -152 -87 -245 -20 -114 -5 -207 67 -414
l22 -64 69 144 c39 79 72 163 75 186 8 62 -12 158 -66 310 l-48 137 -32 -54z" />
        <path
            d="M12818 12581 c-87 -55 -105 -108 -81 -234 13 -71 14 -94 5 -121 -24
-66 -5 -126 61 -193 41 -43 42 -43 112 -43 70 0 71 0 89 35 16 29 18 47 12
117 -4 46 -10 99 -15 118 -22 96 33 106 141 25 40 -30 75 -51 78 -47 4 4 29
54 56 111 l49 103 -35 29 c-19 16 -54 36 -77 45 -38 15 -52 15 -99 5 l-54 -12
-61 45 c-75 57 -113 60 -181 17z" />
        <path
            d="M6880 12344 c-93 -24 -193 -80 -255 -141 -51 -49 -200 -261 -191
-270 1 -2 38 4 82 12 171 33 292 119 391 280 31 49 63 100 71 113 14 21 13 22
-14 21 -16 0 -54 -7 -84 -15z" />
        <path
            d="M13155 12051 c-87 -40 -121 -110 -112 -226 5 -56 3 -76 -9 -93 -46
-66 -32 -164 34 -233 33 -35 45 -40 111 -50 57 -8 75 -8 81 1 11 18 30 175 30
246 0 110 40 113 140 12 40 -41 74 -68 77 -61 4 11 25 42 100 145 l34 47 -42
46 c-46 50 -110 76 -167 67 -29 -4 -40 2 -97 57 -55 53 -68 61 -102 61 -21 0
-56 -9 -78 -19z" />
        <path
            d="M5889 11763 c-15 -48 -23 -103 -26 -189 -5 -114 -4 -125 24 -206 17
-48 61 -139 98 -204 80 -137 69 -144 110 81 31 171 28 211 -25 324 -29 60
-148 261 -156 261 -2 0 -13 -30 -25 -67z" />
        <path
            d="M6569 11601 c-135 -68 -233 -163 -291 -282 -39 -81 -104 -277 -94
-286 3 -4 45 13 92 36 111 56 217 154 263 245 40 79 113 316 97 316 -6 0 -36
-13 -67 -29z" />
        <path
            d="M13350 11334 c-67 -29 -99 -77 -120 -179 -8 -40 -21 -70 -40 -90 -15
-16 -33 -40 -39 -52 -17 -34 -13 -123 9 -171 17 -38 28 -47 96 -78 42 -19 78
-33 80 -31 12 11 65 144 84 207 27 88 34 100 66 100 26 0 71 -62 108 -147 l19
-43 56 48 c31 26 75 63 98 81 l43 32 -24 47 c-13 26 -35 57 -48 69 -27 25 -88
53 -117 53 -14 0 -30 19 -57 71 -24 44 -47 75 -65 85 -36 18 -104 17 -149 -2z" />
        <path
            d="M5625 10703 c10 -120 37 -222 86 -321 33 -68 59 -102 137 -181 101
-101 196 -184 203 -176 9 8 -11 210 -26 270 -27 108 -82 202 -170 290 -88 88
-220 205 -230 205 -4 0 -4 -39 0 -87z" />
        <path
            d="M6408 10731 c-82 -76 -152 -179 -186 -274 -23 -64 -26 -91 -30 -250
-5 -211 -12 -206 113 -75 140 146 177 256 173 510 l-3 150 -67 -61z" />
        <path
            d="M13423 10634 c-42 -21 -58 -40 -102 -123 -22 -43 -50 -79 -70 -93
-55 -37 -74 -71 -79 -137 -6 -87 8 -119 79 -170 l60 -43 25 23 c22 21 100 132
148 212 18 29 56 37 73 15 14 -18 41 -104 49 -155 4 -24 8 -43 10 -43 2 0 54
24 115 53 l111 52 -6 38 c-8 46 -36 105 -63 129 -10 10 -35 24 -55 32 -32 14
-37 21 -52 83 -10 37 -24 79 -32 91 -32 49 -145 68 -211 36z" />
        <path
            d="M6553 9812 c-89 -136 -141 -316 -128 -446 3 -39 11 -91 17 -116 17
-74 80 -284 88 -293 10 -11 59 67 110 174 85 178 87 313 7 564 -25 77 -47 149
-49 160 -3 16 -13 7 -45 -43z" />
        <path
            d="M13300 9801 c-19 -11 -57 -38 -83 -61 -34 -30 -62 -45 -95 -52 -79
-14 -151 -105 -152 -190 0 -38 62 -158 83 -158 18 0 131 67 192 114 96 75 132
60 122 -52 -3 -37 -9 -82 -13 -101 l-7 -33 124 7 c68 4 126 9 128 11 2 2 6 34
9 72 5 75 -6 107 -54 159 -20 21 -24 34 -20 57 4 17 9 53 12 80 7 68 -18 109
-89 141 -62 29 -109 31 -157 6z" />
        <path
            d="M5693 9611 c11 -55 58 -163 106 -245 58 -99 154 -198 252 -259 74
-46 318 -161 326 -154 2 2 -19 55 -45 118 -27 63 -57 136 -68 164 -23 63 -133
180 -218 234 -34 21 -107 58 -162 81 -54 23 -121 54 -148 67 l-49 25 6 -31z" />
        <path
            d="M13074 9121 c-22 -10 -60 -33 -84 -50 -27 -20 -55 -31 -76 -31 -73 0
-131 -43 -170 -125 -13 -27 -24 -56 -24 -62 0 -7 14 -44 31 -83 21 -46 37 -70
48 -70 20 0 160 66 219 104 100 63 127 2 72 -158 l-19 -56 53 0 c29 0 87 -3
128 -6 l74 -7 12 40 c22 73 16 134 -19 186 l-31 47 16 54 c20 69 20 125 0 154
-24 34 -114 82 -154 82 -19 0 -53 -9 -76 -19z" />
        <path
            d="M6895 9013 c-59 -140 -75 -352 -35 -478 32 -103 178 -385 199 -385
10 0 47 108 66 190 19 84 19 220 0 295 -21 80 -49 140 -129 274 -36 61 -66
115 -66 121 0 26 -21 16 -35 -17z" />
        <path
            d="M6080 8616 c0 -13 68 -112 118 -173 98 -117 226 -204 372 -252 55
-18 309 -71 342 -71 5 0 -8 22 -30 48 -22 26 -77 97 -121 157 -85 114 -100
128 -191 174 -84 43 -140 60 -299 86 -80 14 -156 28 -168 31 -13 4 -23 3 -23
0z" />
        <path
            d="M12550 8481 c-25 -10 -61 -27 -80 -39 -24 -15 -51 -22 -88 -22 -84 0
-142 -42 -181 -131 l-21 -46 25 -73 c14 -40 26 -75 28 -77 7 -6 142 39 219 73
80 36 107 36 121 0 7 -18 -18 -106 -45 -159 -11 -22 -17 -41 -14 -44 3 -3 43
-11 88 -18 46 -7 99 -16 118 -20 34 -6 37 -4 53 31 37 76 32 152 -14 215 -10
13 -7 30 14 83 15 36 27 80 27 96 0 58 -111 150 -180 149 -14 0 -45 -8 -70
-18z" />
        <path
            d="M7516 8297 c-14 -49 -18 -196 -7 -267 27 -170 82 -271 252 -458 103
-113 103 -114 112 -85 5 15 10 89 10 163 0 120 -2 144 -26 216 -35 105 -89
188 -196 299 -48 50 -99 104 -113 122 -25 31 -26 31 -32 10z" />
        <path
            d="M12130 7894 c-66 -22 -81 -24 -121 -14 -63 15 -115 -7 -175 -74 l-46
-51 6 -80 c4 -43 8 -81 10 -83 7 -6 165 19 238 38 74 19 100 16 112 -16 7 -19
-22 -87 -64 -149 -18 -26 -30 -48 -28 -49 1 -1 52 -20 112 -41 123 -43 117
-45 157 40 22 48 24 94 4 141 -16 39 -14 46 32 122 18 31 33 66 33 79 0 70
-101 164 -173 163 -12 -1 -56 -12 -97 -26z" />
        <path
            d="M6985 7674 c-11 -3 -63 -8 -115 -12 l-95 -7 84 -71 c215 -184 389
-236 710 -213 86 6 160 15 164 19 4 4 -63 58 -150 121 -204 147 -243 162 -438
165 -77 1 -149 0 -160 -2z" />
        <path
            d="M4999 13285 c-31 -17 -39 -29 -107 -155 l-51 -95 111 -59 c107 -57
112 -58 126 -40 25 33 112 216 112 237 0 36 -34 77 -84 102 -57 29 -71 30
-107 10z" />
        <path
            d="M14395 13188 c-99 -22 -182 -42 -185 -45 -6 -5 80 -170 96 -184 8 -6
53 35 144 131 72 77 130 139 128 139 -1 -1 -84 -19 -183 -41z" />
        <path
            d="M14660 12393 c-168 -59 -306 -107 -308 -108 -8 -6 71 -202 90 -222
56 -60 133 -68 274 -28 218 63 334 150 334 251 0 39 -60 214 -73 213 -7 0
-149 -48 -317 -106z" />
        <path d="M9225 11841 c-8 -15 3 -31 21 -31 9 0 14 7 12 17 -4 20 -24 28 -33
14z" />
        <path d="M9894 11859 c-8 -14 11 -33 25 -25 6 4 11 14 11 22 0 16 -26 19 -36
3z" />
        <path
            d="M8972 11573 c2 -10 10 -18 18 -18 8 0 16 8 18 18 2 12 -3 17 -18 17
-15 0 -20 -5 -18 -17z" />
        <path
            d="M9560 11337 l-155 -73 -26 -54 c-15 -30 -25 -57 -24 -58 4 -4 345
177 345 183 0 1 7 19 15 39 8 20 12 36 8 35 -5 0 -78 -33 -163 -72z" />
        <path
            d="M9740 11222 l-295 -147 -42 -75 c-23 -41 -40 -76 -38 -78 1 -2 61 35
131 81 167 110 242 150 365 197 56 22 110 47 121 57 23 20 73 113 61 112 -5 0
-141 -66 -303 -147z" />
        <path
            d="M10266 11248 c-22 -31 -20 -71 4 -93 11 -10 20 -22 20 -27 0 -26 -60
-93 -110 -123 -50 -30 -61 -43 -80 -90 -13 -31 -20 -58 -18 -61 10 -9 147 127
199 197 50 68 53 70 86 64 18 -3 33 -3 33 0 0 17 -22 45 -35 45 -10 0 -15 11
-15 33 0 22 -8 41 -23 55 -29 28 -42 28 -61 0z m49 -39 c0 -7 -8 -15 -17 -17
-18 -3 -25 18 -11 32 10 10 28 1 28 -15z" />
        <path
            d="M10005 11113 c4 -10 8 -27 9 -38 1 -17 -5 -20 -34 -19 -19 0 -42 4
-51 8 -11 5 -19 -2 -30 -26 -17 -40 -62 -48 -67 -12 -2 12 -14 26 -28 33 -33
15 -31 16 -38 -21 -8 -40 14 -75 61 -94 41 -18 97 -5 113 27 7 13 21 19 43 19
71 0 100 58 56 114 -23 30 -45 35 -34 9z" />
        <path
            d="M9226 11054 c-9 -26 -14 -49 -11 -52 2 -2 24 -7 48 -9 l44 -5 16 46
c18 51 19 50 -44 60 -37 6 -37 6 -53 -40z" />
        <path
            d="M9020 10976 c-25 -67 -24 -76 6 -76 16 0 38 -3 50 -6 18 -5 23 1 34
41 7 25 10 48 7 51 -3 3 -24 8 -46 11 -37 5 -41 3 -51 -21z" />
        <path
            d="M9631 10912 c-36 -80 -38 -113 -11 -183 24 -61 19 -69 -46 -69 -30 0
-52 8 -82 29 -55 40 -60 61 -36 144 4 14 -1 17 -30 17 -106 0 -182 -89 -250
-296 -33 -102 -45 -117 -84 -116 -94 2 -126 63 -120 230 1 61 0 108 -3 106 -4
-2 -19 -42 -34 -88 -22 -69 -27 -97 -23 -153 6 -90 41 -176 93 -232 l43 -46
-5 -76 c-9 -123 31 -209 110 -238 76 -29 212 -2 321 64 100 60 146 106 219
217 39 60 71 107 73 106 1 -2 16 -46 33 -98 43 -127 100 -247 141 -293 57 -66
185 -117 292 -117 32 0 58 2 58 4 0 2 -13 18 -30 36 -24 25 -30 41 -30 75 l0
42 -71 6 c-72 6 -154 42 -166 72 -6 18 68 114 145 188 80 76 138 101 305 131
77 14 150 32 163 41 22 14 80 112 72 121 -2 2 -33 -6 -68 -17 -86 -27 -188
-27 -319 0 -141 30 -143 31 -84 69 67 43 151 69 172 53 38 -27 77 -51 84 -51
4 0 -2 19 -14 42 -12 23 -18 44 -13 45 5 2 27 14 49 26 35 19 41 29 49 71 8
38 7 54 -5 74 -21 38 -73 70 -127 78 -55 8 -90 -8 -110 -49 -12 -24 -11 -36 6
-87 l19 -58 -45 -12 c-90 -22 -243 -85 -277 -113 -52 -43 -67 -80 -73 -179 -3
-48 -2 -88 2 -88 4 0 24 13 44 29 41 33 95 46 141 36 l31 -7 -63 -69 c-50 -53
-71 -86 -93 -144 -16 -41 -34 -75 -41 -75 -30 0 -83 133 -149 370 -38 141 -41
162 -18 181 25 21 51 80 58 134 6 50 6 50 -11 25 -10 -14 -33 -41 -51 -59 -28
-28 -36 -32 -42 -20 -15 26 -50 172 -50 206 0 18 -4 33 -9 33 -4 0 -22 -31
-40 -68z m783 -68 c18 -18 18 -17 10 -38 -4 -10 -18 -16 -35 -16 -25 0 -29 4
-29 29 0 26 9 38 32 40 4 1 14 -6 22 -15z m-1017 -244 c57 -74 92 -87 174 -65
109 31 117 31 125 0 11 -44 -5 -136 -32 -191 -72 -142 -256 -273 -407 -290
-70 -7 -114 16 -144 76 -23 44 -31 110 -14 110 21 0 61 82 80 167 22 99 53
170 96 222 41 48 67 42 122 -29z" />
        <path
            d="M9446 10469 c-2 -8 -9 -29 -15 -48 -13 -41 -4 -51 51 -51 34 0 38 3
47 38 16 55 14 62 -18 62 -16 0 -36 3 -45 6 -9 3 -18 0 -20 -7z" />
        <path
            d="M9270 10335 c-25 -66 -24 -75 6 -75 16 0 38 -3 49 -6 18 -4 23 2 37
44 l16 50 -30 6 c-54 11 -68 7 -78 -19z" />
        <path
            d="M10337 10235 c-79 -22 -81 -23 -66 -41 9 -11 23 -14 46 -11 l34 6
-26 -30 c-50 -60 -24 -129 49 -129 45 0 86 36 86 76 l0 27 -21 -27 c-22 -28
-48 -33 -67 -14 -21 21 -13 53 23 95 19 23 35 46 35 52 0 14 -32 13 -93 -4z" />
        <path
            d="M9650 10024 c-52 -46 -119 -96 -147 -109 -40 -19 -54 -32 -59 -53 -3
-15 -10 -44 -16 -66 -5 -21 -8 -40 -6 -41 2 -2 42 30 88 71 47 42 117 103 157
135 61 51 72 66 78 100 4 22 5 42 3 44 -1 1 -46 -35 -98 -81z" />
        <path
            d="M9775 9947 c-4 -15 -2 -55 5 -90 12 -56 11 -69 -5 -111 -13 -33 -15
-50 -8 -57 18 -18 47 -6 62 25 26 54 19 97 -39 241 -7 18 -8 18 -15 -8z" />
        <path d="M8420 10946 c0 -8 4 -17 9 -20 11 -7 33 18 24 27 -12 12 -33 7 -33
-7z" />
        <path
            d="M14867 10198 c-8 -30 -21 -198 -16 -198 2 0 84 16 183 35 98 19 181
35 185 35 3 0 -2 5 -11 11 -18 10 -325 139 -332 139 -2 0 -6 -10 -9 -22z" />
        <path d="M8376 10213 c-12 -12 -6 -33 9 -33 8 0 15 6 15 14 0 17 -14 28 -24
19z" />
        <path
            d="M13226 6883 c26 -54 63 -133 83 -175 l36 -77 82 72 c45 40 82 74 82
77 1 4 -131 86 -291 180 l-38 22 46 -99z" />
        <path
            d="M6780 6691 c-115 -36 -260 -191 -310 -334 -35 -100 -22 -178 44 -243
100 -101 222 -79 358 64 86 92 131 165 153 247 24 94 6 154 -64 218 -55 49
-120 66 -181 48z" />
        <path
            d="M12049 6266 c-27 -10 -201 -99 -217 -111 -5 -4 112 -225 119 -225 3
0 48 23 100 50 106 57 159 106 159 147 0 30 -33 105 -55 123 -26 21 -70 28
-106 16z" />
        <path
            d="M11170 5649 c0 -149 3 -190 13 -186 6 2 55 17 107 32 52 15 96 29 98
30 4 3 -208 315 -214 315 -2 0 -4 -86 -4 -191z" />
        <path
            d="M9336 5492 c-36 -92 -66 -173 -66 -179 0 -9 193 -34 211 -26 5 2 -68
363 -75 370 -2 2 -33 -72 -70 -165z" />
        <path
            d="M20065 16004 c94 -48 146 -88 231 -176 286 -295 454 -891 480 -1703
3 -99 7 -1492 8 -3095 2 -3205 -2 -3016 62 -3430 211 -1370 953 -2427 2099
-2990 805 -396 1764 -532 2815 -400 776 97 1498 356 2060 738 68 46 167 119
220 161 121 96 350 320 446 434 l74 88 0 -123 c1 -401 45 -645 153 -853 137
-263 383 -433 694 -480 80 -12 252 -15 951 -15 l853 0 -74 38 c-427 221 -650
789 -707 1802 -14 246 -13 7951 0 8205 55 995 287 1586 704 1796 l78 39 -1718
0 -1719 -1 69 -34 c368 -184 593 -656 680 -1425 37 -325 37 -401 36 -3509 -1
-3314 2 -3151 -55 -3426 -106 -509 -363 -980 -731 -1336 -545 -527 -1296 -823
-2149 -846 -896 -24 -1647 249 -2176 793 -200 207 -340 407 -474 679 -168 341
-268 701 -317 1140 -19 176 -19 6044 0 6280 77 927 304 1458 707 1651 l69 34
-1719 0 -1720 -1 70 -35z" />
        <path
            d="M33506 16010 c214 -113 351 -319 429 -645 90 -372 84 -984 -15 -1660
-93 -634 -831 -6063 -960 -7056 -83 -640 -160 -1026 -277 -1379 -193 -584
-446 -930 -798 -1087 l-50 -22 1519 -1 1519 0 -60 31 c-262 135 -420 432 -478
899 -33 270 -29 659 11 1050 8 80 46 381 84 670 231 1740 536 4185 810 6490
62 514 114 942 116 950 3 8 756 -1756 1673 -3920 918 -2164 1699 -4000 1735
-4080 325 -705 764 -1348 1161 -1700 185 -164 407 -317 546 -374 l36 -15 1988
5049 c1094 2778 1990 5048 1992 5047 1 -2 73 -590 158 -1308 312 -2620 520
-4309 701 -5689 52 -399 104 -790 114 -870 53 -409 74 -901 51 -1182 -27 -315
-94 -560 -203 -746 -50 -85 -189 -220 -273 -264 l-70 -37 1720 0 1720 0 -50
22 c-534 234 -868 952 -1045 2242 -11 83 -66 490 -121 905 -175 1321 -464
3451 -740 5445 -206 1494 -203 1461 -203 1915 0 260 3 351 18 455 63 454 213
730 470 865 l59 31 -1284 -3 -1284 -3 -78 -22 c-294 -84 -507 -313 -694 -748
-19 -44 -737 -1860 -1594 -4035 -858 -2175 -1563 -3958 -1567 -3962 -4 -4
-770 1769 -1702 3940 -931 2171 -1709 3979 -1728 4017 -211 430 -533 690 -978
787 -98 22 -112 22 -1268 25 l-1169 4 59 -31z" />
        <path
            d="M47468 16010 c279 -98 601 -316 913 -618 345 -333 701 -779 1084
-1357 179 -270 1584 -2495 2664 -4220 l282 -450 -4 -1735 c-4 -1895 -1 -1818
-63 -2220 -99 -646 -324 -1059 -665 -1220 l-64 -30 1725 0 1725 0 -64 30
c-353 167 -578 602 -676 1305 -49 347 -48 325 -52 2150 l-3 1720 2041 3320
c1122 1826 2045 3328 2050 3338 9 16 -52 17 -1228 17 l-1237 0 45 -28 c250
-159 233 -556 -53 -1227 -76 -179 -257 -536 -394 -780 -103 -182 -1877 -3151
-1893 -3168 -5 -5 -577 859 -1272 1920 -1468 2242 -1504 2296 -1645 2484 -133
177 -336 387 -474 491 -172 129 -396 230 -605 272 -162 32 -275 36 -1245 36
l-975 0 83 -30z" />
        <path
            d="M62192 15987 c72 -55 114 -140 149 -297 8 -39 14 -320 19 -970 8
-976 6 -951 59 -1145 28 -101 97 -248 155 -329 63 -89 189 -203 281 -255 98
-56 271 -116 393 -135 460 -74 884 30 1155 282 l47 45 0 -36 c0 -105 48 -221
111 -266 59 -43 115 -51 366 -51 l226 0 -41 30 c-66 48 -103 113 -139 250 -16
59 -17 166 -20 1257 -4 1260 -3 1303 42 1438 27 80 76 154 124 186 l44 29
-463 0 -463 0 39 -29 c21 -15 47 -37 56 -47 33 -37 70 -127 91 -217 20 -89 21
-123 25 -952 4 -918 1 -996 -44 -1135 -44 -137 -109 -227 -221 -304 -223 -152
-581 -204 -832 -120 -249 83 -400 262 -465 554 -21 93 -21 114 -21 980 0 819
1 891 18 970 31 143 80 233 151 275 l41 25 -463 0 -464 0 44 -33z" />
        <path
            d="M65745 15996 c69 -41 113 -117 148 -253 l22 -88 0 -1225 c0 -1367 3
-1308 -69 -1455 -37 -74 -62 -104 -111 -129 -28 -15 0 -16 359 -16 l389 0 -42
30 c-75 55 -124 158 -152 320 -14 77 -25 2180 -12 2179 4 0 393 -464 863
-1031 470 -567 902 -1080 959 -1139 165 -173 297 -263 482 -327 l87 -31 -2
1407 c-1 1533 -4 1450 54 1604 22 60 77 130 124 159 31 19 26 19 -354 18 -303
0 -381 -3 -365 -12 49 -29 103 -97 128 -160 60 -149 60 -143 64 -1201 3 -604
1 -967 -5 -965 -5 2 -405 477 -889 1054 -483 578 -906 1082 -939 1122 -34 40
-72 93 -85 118 l-24 45 -335 0 -335 0 40 -24z" />
        <path
            d="M69450 16002 c75 -50 117 -121 153 -256 22 -81 22 -84 22 -1316 0
-1167 -1 -1239 -19 -1314 -32 -138 -69 -206 -139 -257 l-40 -29 458 0 458 0
-34 23 c-77 52 -126 149 -157 310 -15 84 -17 192 -17 1252 0 914 3 1178 13
1244 27 171 75 274 153 331 l42 30 -459 -1 c-432 0 -458 -1 -434 -17z" />
        <path
            d="M70741 15978 c66 -53 141 -151 196 -255 23 -43 224 -550 448 -1128
224 -577 427 -1092 451 -1144 113 -241 319 -464 544 -589 l55 -31 643 1587
c353 873 642 1590 642 1595 0 4 -163 7 -362 7 l-361 0 43 -29 c114 -76 148
-239 94 -451 -15 -62 -788 -1997 -803 -2013 -4 -4 -196 482 -425 1080 -230
598 -431 1115 -447 1148 -56 114 -145 196 -257 237 -49 18 -87 21 -286 26
l-230 4 55 -44z" />
        <path
            d="M74038 16000 c45 -28 100 -99 123 -159 55 -147 54 -115 54 -1421 0
-1114 -1 -1211 -18 -1290 -24 -115 -79 -224 -135 -267 l-44 -33 909 0 908 0
104 303 c57 166 107 309 110 317 3 8 -11 0 -30 -18 -252 -243 -719 -318 -1264
-204 l-40 8 0 574 0 575 185 -1 c344 -2 515 -49 600 -165 l30 -42 0 276 0 277
-407 2 -408 3 0 450 0 449 40 10 c22 6 159 10 305 10 211 1 284 -3 360 -17
138 -25 250 -63 317 -107 l58 -39 3 256 c1 141 1 257 0 258 -2 1 -405 5 -896
7 -853 5 -892 5 -864 -12z" />
        <path
            d="M76406 16001 c46 -28 102 -98 123 -156 57 -151 55 -102 59 -1355 3
-1171 1 -1271 -34 -1408 -23 -92 -73 -182 -122 -219 l-44 -33 452 0 452 0 -44
33 c-30 23 -54 55 -80 107 -75 151 -72 79 -75 1466 l-4 1241 78 12 c561 85
901 -127 880 -549 -5 -108 -26 -172 -83 -258 -116 -175 -371 -319 -671 -379
l-93 -19 525 -704 c348 -467 548 -727 594 -771 48 -47 94 -79 152 -108 126
-62 183 -71 478 -71 l254 0 -89 62 c-281 194 -373 291 -896 936 -242 299 -436
547 -432 551 5 4 45 20 89 36 453 157 714 509 665 900 -22 174 -98 325 -227
445 -132 123 -345 212 -575 239 -46 5 -371 12 -723 15 -626 6 -639 5 -609 -13z" />
        <path
            d="M80475 16010 c-632 -40 -1035 -353 -1035 -805 0 -193 68 -352 215
-501 148 -151 297 -236 747 -428 267 -114 363 -160 446 -213 180 -115 280
-286 270 -463 -11 -192 -152 -324 -424 -397 -91 -24 -116 -27 -294 -27 -214
-1 -301 12 -494 75 -156 51 -384 170 -498 261 -21 16 -38 26 -38 21 0 -22 125
-560 132 -570 19 -25 388 -102 588 -123 736 -76 1392 224 1555 713 55 164 42
318 -40 485 -37 74 -64 111 -137 188 -147 154 -286 234 -680 395 -121 49 -266
113 -321 140 -211 106 -353 221 -418 341 -32 60 -34 68 -34 163 0 86 3 107 25
150 53 108 180 198 340 240 98 26 322 31 440 11 195 -34 385 -115 523 -221
l57 -45 0 255 0 254 -37 10 c-174 47 -384 78 -600 91 -93 5 -170 9 -173 8 -3
0 -54 -4 -115 -8z" />
        <path
            d="M81984 16007 c116 -72 167 -199 187 -461 7 -93 9 -512 6 -1226 -3
-936 -6 -1096 -20 -1162 -32 -159 -74 -244 -148 -298 l-42 -30 458 0 458 0
-41 30 c-74 53 -116 139 -148 302 -15 73 -17 208 -21 1132 -3 662 -1 1110 6
1215 18 283 67 417 181 493 24 16 -2 17 -435 17 -360 0 -456 -3 -441 -12z" />
        <path
            d="M83536 16012 c-6 -11 -156 -513 -156 -525 0 -4 12 0 28 11 57 41 196
104 285 129 88 25 105 26 388 30 l296 5 9 -24 c13 -37 17 -2211 4 -2358 -21
-241 -69 -363 -170 -432 -24 -16 -1 -17 430 -17 447 -1 454 -1 425 18 -67 40
-116 123 -151 256 -17 66 -18 144 -22 1250 -2 649 0 1208 3 1243 l7 62 273 0
c163 0 295 -5 327 -11 82 -17 158 -58 215 -115 l53 -52 9 36 c42 163 123 470
127 485 5 16 -56 17 -1185 17 -654 0 -1192 -4 -1195 -8z" />
        <path
            d="M86720 15984 c17 -20 36 -48 42 -63 17 -42 12 -178 -10 -252 -22 -75
-899 -2268 -972 -2431 -81 -182 -167 -292 -290 -372 l-55 -36 405 0 405 0 -39
32 c-47 39 -66 81 -66 151 0 81 27 166 189 607 l149 405 479 0 478 0 55 -27
c30 -15 56 -26 57 -24 8 8 -102 245 -136 295 -29 43 -52 63 -96 86 l-59 30
-324 3 c-298 3 -324 5 -319 20 9 32 469 1177 475 1184 4 4 151 -361 327 -810
649 -1659 654 -1676 639 -1766 -12 -73 -58 -141 -119 -174 -15 -9 108 -11 473
-12 270 0 492 2 492 4 0 2 -22 18 -50 36 -99 63 -204 203 -305 405 -31 61
-297 702 -593 1425 l-538 1315 -363 3 -363 2 32 -36z" />
        <path
            d="M90200 16010 c-473 -31 -822 -214 -964 -505 -48 -98 -68 -190 -68
-306 0 -203 72 -361 238 -519 145 -138 309 -229 749 -415 278 -118 326 -141
432 -211 226 -150 320 -394 224 -588 -53 -109 -150 -184 -307 -237 -327 -111
-729 -67 -1104 121 -90 45 -240 138 -277 173 -17 15 -23 17 -23 6 0 -35 124
-565 134 -571 17 -11 289 -75 391 -92 797 -133 1491 116 1720 618 46 100 60
166 59 276 -2 179 -75 333 -228 486 -146 145 -284 223 -681 384 -257 105 -358
154 -473 229 -218 144 -315 305 -282 469 45 220 274 351 611 352 257 0 493
-75 697 -220 l82 -59 0 254 0 254 -37 10 c-174 47 -384 78 -600 91 -93 5 -170
9 -173 8 -3 0 -57 -4 -120 -8z" />
        <path
            d="M62525 11586 c68 -68 80 -121 79 -336 0 -162 -6 -216 -77 -720 -42
-300 -108 -780 -147 -1067 -72 -536 -90 -641 -135 -759 -41 -108 -113 -206
-180 -242 -15 -9 81 -11 371 -12 l391 0 -43 45 c-61 63 -76 118 -81 295 -4
135 0 182 66 685 38 297 100 793 138 1103 37 309 70 562 73 562 3 0 201 -463
440 -1028 239 -565 462 -1083 496 -1152 82 -166 165 -289 261 -381 74 -72 168
-138 179 -126 3 3 242 605 531 1338 288 733 528 1339 532 1346 4 8 17 -73 30
-179 60 -517 156 -1299 198 -1613 41 -304 47 -373 47 -525 0 -160 -2 -180 -23
-235 -14 -36 -39 -75 -63 -98 l-39 -37 448 0 447 0 -46 29 c-94 60 -168 210
-212 426 -9 44 -41 267 -71 495 -31 228 -94 694 -141 1035 -101 734 -108 807
-94 934 12 112 39 179 91 226 l39 35 -343 0 -343 0 -51 -25 c-56 -28 -86 -62
-125 -140 -18 -36 -656 -1641 -860 -2165 -8 -21 -70 117 -467 1040 -251 586
-465 1080 -475 1098 -23 45 -83 110 -127 138 -78 49 -120 54 -451 54 l-307 0
44 -44z" />
        <path
            d="M66736 11611 c64 -39 120 -140 150 -271 15 -67 18 -174 24 -990 6
-794 9 -926 24 -1000 53 -270 130 -432 280 -589 192 -199 445 -295 811 -308
264 -9 464 28 662 122 112 53 170 91 249 167 l60 58 12 -84 c16 -126 57 -196
137 -239 38 -21 56 -22 300 -25 260 -3 260 -3 229 16 -74 46 -121 135 -152
287 -15 72 -17 201 -17 1285 0 1201 0 1205 22 1303 26 119 73 209 132 255 l43
32 -454 0 c-446 0 -453 0 -423 -19 90 -55 141 -175 165 -381 8 -64 10 -377 8
-970 -3 -870 -4 -876 -26 -955 -35 -127 -76 -201 -156 -281 -82 -82 -164 -130
-291 -173 -252 -84 -524 -77 -713 18 -236 119 -358 324 -392 654 -8 78 -10
361 -7 927 3 731 5 823 21 890 31 131 86 232 150 271 31 19 28 19 -424 19
-452 0 -455 0 -424 -19z" />
        <path
            d="M70346 11611 c72 -44 118 -130 152 -281 15 -68 17 -188 17 -1290 0
-1102 -2 -1222 -17 -1290 -34 -151 -80 -237 -152 -281 -31 -19 -25 -19 422
-19 l454 0 -44 33 c-49 38 -100 128 -123 222 -29 115 -35 254 -35 793 l0 542
775 0 775 0 0 -572 c0 -611 -5 -692 -51 -826 -24 -72 -69 -136 -118 -169 l-34
-23 453 0 453 0 -41 30 c-79 57 -130 187 -151 382 -15 132 -15 2224 0 2356 21
195 72 325 151 382 l41 30 -453 0 -453 0 34 -23 c49 -33 94 -97 118 -169 43
-125 51 -226 51 -655 l0 -403 -775 0 -775 0 0 373 c0 493 13 609 83 747 21 42
47 75 75 97 l44 33 -454 0 c-447 0 -453 0 -422 -19z" />
        <path
            d="M74822 11603 c61 -63 74 -168 39 -304 -22 -87 -933 -2362 -997 -2492
-79 -158 -162 -259 -268 -326 l-50 -31 405 0 404 0 -33 20 c-52 32 -72 74 -72
155 0 98 10 132 183 603 l153 417 475 0 476 0 62 -32 c35 -18 61 -27 58 -20
-124 301 -168 364 -276 398 -22 7 -159 14 -352 18 l-315 6 242 605 c229 572
243 603 254 575 6 -16 159 -408 340 -870 398 -1018 573 -1472 594 -1544 40
-137 8 -252 -89 -312 -30 -19 -22 -19 464 -19 l493 0 -61 41 c-94 63 -178 171
-280 361 -29 54 -299 699 -600 1435 l-548 1338 -363 3 -364 2 26 -27z" />
        <path
            d="M77773 11612 c80 -54 112 -155 110 -352 0 -122 -13 -232 -77 -695
-42 -302 -108 -784 -146 -1070 -77 -575 -89 -642 -132 -765 -47 -134 -105
-217 -184 -267 -15 -9 65 -12 369 -12 l387 -1 -40 40 c-100 100 -110 287 -41
800 63 475 74 564 156 1234 41 341 77 621 78 622 1 2 205 -475 452 -1059 247
-584 472 -1105 498 -1157 73 -143 152 -256 242 -345 77 -78 167 -141 183 -131
5 3 247 610 538 1350 291 739 530 1343 532 1342 1 -2 38 -302 82 -667 44 -365
105 -857 136 -1094 42 -316 57 -464 57 -560 2 -187 -25 -279 -98 -343 l-36
-32 447 0 447 0 -39 29 c-59 42 -93 87 -135 176 -57 122 -84 254 -144 705 -31
228 -97 712 -147 1075 -87 619 -92 670 -92 830 0 155 2 175 23 230 14 36 39
75 63 98 l39 37 -343 0 c-310 0 -347 -2 -383 -19 -55 -25 -102 -81 -145 -176
-21 -44 -221 -547 -446 -1117 -225 -571 -411 -1034 -415 -1030 -3 4 -205 473
-449 1042 -244 569 -456 1061 -472 1093 -37 75 -104 142 -176 175 l-57 27
-335 3 c-331 2 -335 2 -307 -16z" />
        <path
            d="M82515 11586 c59 -60 76 -117 82 -281 6 -152 15 -69 -132 -1150 -169
-1240 -172 -1262 -200 -1360 -47 -160 -118 -277 -200 -326 -30 -19 -24 -19
361 -19 l391 0 -43 45 c-67 70 -79 122 -78 340 1 162 7 230 66 678 37 274 97
752 134 1062 38 311 71 565 74 565 3 0 201 -463 440 -1028 239 -565 462 -1083
496 -1152 82 -166 165 -289 261 -381 74 -72 168 -138 179 -126 3 3 242 605
531 1338 288 734 528 1339 531 1346 4 7 45 -302 91 -685 46 -383 106 -866 134
-1072 44 -329 50 -397 51 -555 1 -167 -1 -184 -23 -240 -14 -36 -40 -75 -63
-98 l-39 -37 448 0 447 0 -46 29 c-80 51 -150 177 -193 347 -15 55 -58 342
-100 654 -42 305 -107 785 -146 1065 -85 620 -93 700 -79 824 12 112 39 179
91 226 l39 35 -343 0 -343 0 -51 -25 c-56 -28 -86 -62 -125 -140 -18 -36 -681
-1704 -860 -2165 -8 -21 -70 117 -467 1040 -251 586 -465 1080 -475 1098 -23
45 -83 110 -127 138 -78 49 -120 54 -451 54 l-307 0 44 -44z" />
        <path
            d="M87964 11605 c15 -14 34 -41 42 -60 19 -46 18 -163 -2 -244 -15 -61
-870 -2206 -972 -2440 -78 -179 -177 -305 -296 -380 l-50 -31 404 0 403 0 -33
23 c-72 48 -88 144 -50 288 11 41 87 256 169 479 l149 405 474 0 474 0 62 -31
c34 -17 62 -30 62 -29 0 1 -16 41 -36 90 -80 198 -128 267 -217 306 -50 22
-63 23 -369 27 -175 2 -318 7 -318 10 0 15 474 1192 480 1192 4 0 59 -134 122
-297 64 -164 218 -559 343 -878 310 -793 471 -1213 485 -1266 17 -63 15 -161
-5 -203 -19 -39 -48 -73 -85 -98 -24 -16 1 -17 464 -17 l490 -1 -48 30 c-107
68 -203 196 -314 420 -37 74 -306 719 -597 1432 l-530 1297 -364 1 -364 0 27
-25z" />
        <path
            d="M90520 11597 c73 -43 124 -118 150 -221 19 -77 20 -111 20 -1316 0
-1204 -1 -1239 -20 -1315 -29 -114 -98 -219 -171 -262 -16 -10 -29 -21 -29
-26 0 -4 330 -6 733 -4 790 4 792 4 1034 62 310 74 588 228 803 444 131 131
195 219 274 378 108 214 162 423 172 663 13 296 -38 546 -161 795 -197 398
-614 689 -1131 789 -219 42 -310 46 -1038 46 l-690 0 54 -33z m1475 -346 c349
-72 570 -211 738 -464 132 -199 184 -383 194 -689 17 -506 -119 -822 -447
-1037 -341 -224 -762 -312 -1203 -251 l-87 13 2 1205 3 1206 40 8 c206 43 573
47 760 9z" />
        <path
            d="M93870 11605 c71 -52 118 -151 148 -308 16 -84 17 -192 17 -1257 0
-1065 -1 -1173 -17 -1257 -30 -157 -77 -256 -148 -308 l-34 -25 448 0 449 0
-47 41 c-88 77 -129 200 -146 432 -5 82 -10 555 -10 1117 0 562 5 1035 10
1117 18 250 69 387 170 455 24 16 2 17 -424 17 l-450 1 34 -25z" />
        <path
            d="M95095 11602 c78 -37 195 -132 269 -219 139 -160 182 -225 768 -1157
l238 -379 0 -481 c0 -368 -4 -503 -15 -577 -23 -154 -72 -260 -145 -314 l-34
-25 450 0 449 0 -32 20 c-65 39 -118 140 -150 285 -12 56 -16 171 -20 575 l-5
506 547 889 c301 490 549 893 552 898 2 4 -143 7 -322 7 l-326 0 20 -26 c11
-14 23 -41 27 -59 10 -57 -30 -189 -103 -335 -65 -129 -561 -970 -573 -970 -3
0 -113 166 -245 368 -508 779 -539 824 -618 899 -121 115 -130 117 -492 121
l-300 3 60 -29z" />
        <path
            d="M98812 11619 c10 -5 30 -31 45 -56 23 -39 27 -57 26 -122 0 -42 -8
-105 -17 -141 -21 -78 -918 -2322 -986 -2467 -83 -177 -175 -291 -285 -354
l-50 -29 405 0 405 0 -36 24 c-66 45 -84 136 -54 264 11 46 236 676 321 896 6
16 39 17 478 14 l472 -3 62 -31 c34 -17 62 -29 62 -28 0 2 -13 37 -30 79 -78
196 -145 290 -228 321 -40 15 -95 18 -364 22 -175 2 -318 7 -318 10 0 10 472
1186 479 1194 7 8 854 -2157 942 -2405 48 -136 23 -263 -64 -327 l-41 -30 489
0 490 0 -50 34 c-109 73 -211 209 -314 416 -31 63 -297 703 -591 1423 l-535
1307 -365 0 c-250 -1 -360 -4 -348 -11z" />
        <path
            d="M101304 11589 c73 -64 114 -161 136 -319 7 -49 11 -478 11 -1232 0
-980 -3 -1171 -15 -1250 -25 -155 -60 -234 -132 -297 l-47 -41 449 0 448 0
-33 24 c-71 53 -110 127 -142 274 -21 92 -22 130 -26 695 l-5 597 781 0 781 0
0 -487 c0 -269 -5 -552 -10 -630 -17 -232 -58 -355 -146 -432 l-47 -41 449 0
448 0 -34 25 c-71 52 -118 151 -148 308 -16 84 -17 192 -17 1257 0 1065 1
1173 17 1257 30 157 77 256 148 308 l34 25 -450 -1 c-426 0 -448 -1 -424 -17
144 -98 184 -309 178 -932 l-3 -295 -775 0 -775 0 -3 320 c-6 601 30 797 165
898 l37 27 -449 0 -448 0 47 -41z" />
        <path
            d="M62205 7260 c84 -41 207 -143 290 -240 129 -151 154 -188 699 -1055
l296 -470 0 -445 c0 -245 -5 -488 -10 -540 -21 -195 -76 -328 -159 -381 l-45
-29 459 0 458 0 -41 30 c-51 37 -85 87 -112 165 -44 128 -50 210 -50 723 l0
483 540 878 c297 483 542 885 546 895 6 15 -21 16 -321 16 l-327 0 26 -31 c52
-62 24 -203 -82 -411 -32 -62 -172 -303 -312 -536 l-253 -422 -62 92 c-34 51
-207 316 -386 588 -356 544 -412 616 -523 670 -87 42 -157 50 -441 50 l-250
-1 60 -29z" />
        <path
            d="M66523 7280 c-668 -55 -1190 -456 -1393 -1069 -71 -213 -96 -389 -87
-616 16 -405 158 -726 451 -1021 284 -284 603 -429 1028 -466 412 -36 822 93
1151 360 261 212 464 545 537 881 85 390 19 840 -171 1173 -298 521 -878 811
-1516 758z m386 -396 c189 -47 364 -163 494 -324 210 -260 310 -554 310 -905
0 -631 -338 -1079 -878 -1166 -126 -20 -314 -16 -410 10 -408 109 -734 496
-831 986 -25 123 -25 404 0 530 58 300 175 507 380 671 248 199 621 277 935
198z" />
        <path
            d="M70640 7279 c-543 -39 -1023 -230 -1338 -533 -134 -130 -218 -242
-292 -391 -147 -296 -190 -597 -134 -935 119 -716 749 -1208 1663 -1300 151
-15 490 -12 659 5 124 13 604 83 695 101 l27 6 0 734 0 734 -316 0 -316 0 44
-33 c30 -23 54 -55 80 -107 65 -130 70 -175 75 -627 l5 -402 -39 -10 c-198
-53 -370 -74 -598 -74 -216 1 -355 21 -521 74 -335 107 -627 350 -785 654
-148 283 -179 632 -84 935 170 540 719 873 1395 847 319 -12 533 -83 721 -239
26 -21 50 -38 53 -38 3 0 6 119 6 264 l0 264 -27 6 c-243 51 -726 83 -973 65z" />
        <path
            d="M72105 7256 c92 -47 198 -136 288 -242 130 -154 135 -161 698 -1056
l290 -461 -4 -521 c-3 -433 -7 -532 -20 -587 -32 -134 -80 -220 -145 -264
l-37 -25 453 0 454 0 -44 33 c-55 42 -108 145 -133 259 -16 73 -19 144 -22
593 l-4 510 541 880 c298 484 546 888 551 898 9 16 -9 17 -323 17 l-332 0 22
-20 c65 -60 42 -191 -73 -420 -36 -72 -455 -783 -552 -938 -14 -22 -28 -1
-393 555 -208 318 -403 608 -433 644 -60 73 -122 118 -206 151 -52 20 -76 22
-351 26 l-295 4 70 -36z" />
        <path
            d="M76002 7263 c66 -71 78 -173 39 -318 -20 -73 -875 -2218 -971 -2435
-77 -176 -183 -310 -297 -377 -24 -13 -43 -27 -43 -29 0 -2 181 -4 402 -4
l403 0 -39 32 c-48 39 -66 81 -66 151 0 84 27 172 188 607 l150 405 478 0 479
0 55 -27 c30 -15 56 -26 57 -24 7 7 -103 247 -136 296 -29 42 -52 62 -96 85
l-59 30 -323 3 c-178 2 -323 6 -323 10 -1 12 475 1202 480 1202 5 0 490 -1237
787 -2007 100 -261 166 -446 172 -485 17 -110 -10 -186 -88 -245 l-43 -33 491
0 c270 0 491 2 491 4 0 2 -22 18 -50 36 -93 60 -188 181 -289 370 -28 53 -297
699 -599 1435 l-549 1340 -363 3 -364 2 26 -27z" />
        <path
            d="M78570 7282 c0 -5 15 -16 34 -24 51 -25 102 -74 125 -122 12 -23 28
-87 38 -142 14 -87 17 -227 20 -1132 5 -1066 -2 -1377 -32 -1510 -20 -89 -64
-157 -127 -197 -26 -16 -47 -36 -47 -42 -1 -10 97 -13 459 -13 361 0 460 3
460 13 0 6 -22 26 -49 44 -88 57 -119 118 -143 279 -19 132 -19 2376 1 2519
22 168 63 246 157 301 24 14 44 28 44 30 0 2 -211 4 -470 4 -258 0 -470 -4
-470 -8z" />
        <path
            d="M80120 7283 c0 -5 18 -18 40 -31 49 -28 85 -74 100 -130 15 -58 -8
-146 -60 -230 -22 -34 -222 -303 -445 -597 -261 -344 -403 -540 -399 -548 5
-6 218 -289 474 -627 257 -338 494 -655 527 -705 79 -118 159 -193 253 -238
133 -64 169 -69 523 -74 212 -3 317 -2 317 5 0 6 -51 38 -112 72 -291 160
-331 203 -956 1019 -271 353 -495 648 -498 654 -2 7 236 314 529 682 292 369
547 690 565 713 l34 42 -446 0 c-245 0 -446 -3 -446 -7z" />
        <path
            d="M82933 7251 c20 -22 41 -59 48 -83 14 -55 6 -154 -22 -244 -29 -96
-920 -2316 -978 -2440 -81 -170 -171 -282 -285 -353 l-50 -31 409 0 410 0 -38
25 c-70 48 -90 126 -62 252 10 43 87 268 173 501 l155 422 463 0 c496 0 516
-2 587 -52 l28 -20 -16 38 c-9 22 -25 60 -36 86 -64 161 -126 248 -199 282
-42 20 -65 21 -372 24 -181 2 -328 5 -328 8 0 2 104 264 231 581 127 318 236
589 241 603 8 20 11 22 18 10 10 -18 560 -1423 788 -2015 l166 -430 0 -85 c1
-108 -19 -148 -109 -214 -18 -14 35 -15 475 -15 l495 -1 -49 31 c-107 67 -217
212 -320 419 -29 58 -295 698 -592 1423 l-539 1317 -363 0 -364 0 35 -39z" />
        <path
            d="M85387 7264 c74 -49 126 -150 154 -304 20 -106 21 -2419 1 -2525 -30
-162 -82 -266 -155 -310 l-42 -25 458 0 459 0 -44 33 c-30 23 -54 55 -80 107
-75 151 -72 79 -75 1466 l-4 1241 83 14 c123 21 354 18 453 -4 276 -64 425
-246 425 -518 0 -148 -53 -272 -166 -383 -129 -127 -356 -236 -594 -284 l-88
-18 528 -709 c367 -492 550 -729 596 -773 83 -78 198 -136 307 -157 56 -11
149 -15 324 -15 l245 0 -113 81 c-225 161 -386 315 -569 544 -58 72 -248 307
-423 524 -175 216 -315 396 -310 400 4 4 49 22 98 40 191 71 336 161 448 280
197 211 263 504 172 771 -37 108 -81 177 -169 266 -95 95 -186 152 -322 200
-187 67 -250 72 -983 78 l-654 5 40 -25z" />
        <path
            d="M88155 7278 c-7 -17 -155 -520 -155 -524 0 -2 22 10 49 26 201 124
373 159 778 160 l173 0 7 -27 c5 -16 8 -563 8 -1218 0 -928 -3 -1205 -13
-1260 -29 -156 -81 -263 -151 -311 l-36 -24 453 0 454 0 -44 33 c-30 23 -54
55 -80 107 -75 150 -72 86 -75 1400 -2 646 0 1202 4 1235 l8 60 275 -1 c226
-1 287 -4 340 -18 88 -24 152 -60 205 -117 l45 -48 14 52 c23 80 126 476 126
482 0 3 -536 5 -1190 5 -943 0 -1192 -3 -1195 -12z" />
        <path
            d="M91543 7265 c66 -62 82 -160 48 -296 -27 -108 -911 -2319 -1000
-2504 -56 -115 -81 -153 -137 -214 -38 -41 -96 -92 -128 -113 l-59 -38 409 0
409 0 -38 25 c-69 47 -88 123 -63 245 9 41 86 267 172 503 l157 427 463 0
c496 0 516 -2 587 -52 l27 -20 -20 54 c-44 111 -118 255 -151 292 -68 78 -81
81 -451 84 -181 2 -328 5 -328 8 0 2 104 264 231 581 127 318 236 589 241 603
8 20 11 22 18 10 11 -20 601 -1528 791 -2023 82 -213 154 -411 160 -439 16
-71 6 -150 -26 -203 -14 -25 -29 -45 -33 -45 -4 -1 -20 -12 -37 -25 l-30 -25
495 0 495 0 -49 31 c-105 66 -212 206 -318 416 -30 59 -297 701 -593 1426
l-539 1317 -366 0 -365 0 28 -25z" />
    </g>
</svg>
